<?xml version="1.0" standalone="no"?>
<!DOCTYPE svg PUBLIC "-//W3C//DTD SVG 20010904//EN"
 "http://www.w3.org/TR/2001/REC-SVG-20010904/DTD/svg10.dtd">
<svg version="1.0" xmlns="http://www.w3.org/2000/svg"
 width="1024.000000pt" height="1024.000000pt" viewBox="0 0 1024.000000 1024.000000"
 preserveAspectRatio="xMidYMid meet">

<g transform="translate(0.000000,1024.000000) scale(0.100000,-0.100000)"
fill="#000000" stroke="none">
<path d="M5079 9472 c-72 -37 -111 -93 -117 -166 -6 -78 4 -119 43 -171 l35
-45 -36 -88 c-72 -174 -164 -332 -192 -332 -21 1 -39 15 -75 58 -21 26 -27 44
-27 80 0 63 -26 112 -75 139 -129 73 -259 -51 -201 -192 8 -18 12 -36 9 -39
-9 -8 -60 45 -107 113 -42 61 -44 66 -31 92 69 133 -28 290 -189 306 -42 4
-60 0 -106 -24 -77 -39 -113 -93 -118 -177 -6 -88 11 -131 75 -192 l54 -52 35
-172 c20 -94 34 -173 32 -174 -1 -2 -48 -22 -103 -45 -499 -210 -880 -504
-1193 -921 -48 -63 -94 -125 -102 -138 l-15 -24 -85 23 c-118 32 -336 32 -455
0 -281 -74 -506 -279 -604 -546 -126 -347 -47 -739 198 -984 l40 -40 -87 -27
c-105 -32 -158 -58 -239 -117 -300 -222 -401 -715 -219 -1075 112 -223 330
-395 586 -464 120 -32 365 -33 486 -1 92 25 195 69 268 115 l49 32 19 -25
c109 -138 319 -343 478 -465 119 -92 303 -204 466 -285 170 -84 170 -85 222
-189 1 -3 -60 -5 -135 -5 -76 0 -150 -3 -165 -8 -30 -8 -68 -69 -68 -108 0
-34 36 -102 70 -132 l29 -26 1 -288 c0 -177 -3 -284 -9 -278 -5 6 -41 159 -80
340 -40 182 -77 352 -83 379 -16 71 -50 104 -123 117 -76 14 -351 7 -382 -10
-30 -15 -63 -81 -63 -124 0 -19 11 -55 25 -81 28 -53 32 -22 -46 -346 -22 -91
-51 -212 -65 -270 -44 -181 -47 -191 -57 -187 -6 2 -26 51 -45 110 l-34 107
33 37 c85 94 113 183 107 337 -4 91 -8 109 -40 179 -40 84 -111 163 -179 197
-86 44 -143 52 -404 57 -233 5 -253 4 -300 -15 -44 -17 -54 -18 -75 -7 -83 45
-295 45 -400 1 -95 -40 -94 -40 -130 -9 l-34 28 -205 3 c-232 4 -254 -1 -299
-68 -31 -46 -24 -107 18 -168 l30 -43 0 -404 0 -405 -31 -58 c-27 -49 -30 -65
-27 -116 4 -53 8 -62 41 -92 l37 -34 215 0 c205 0 216 1 236 21 l21 21 49 -22
c130 -56 316 -49 443 16 l69 35 21 -25 c37 -43 55 -46 253 -46 159 1 193 4
223 19 33 16 37 16 78 -1 39 -16 78 -18 369 -18 l326 0 32 34 32 34 17 -23
c10 -13 29 -28 44 -34 24 -10 264 -10 1107 -4 6 0 161 -1 345 -4 319 -3 336
-2 367 16 44 27 69 81 83 177 12 81 9 210 -5 252 l-8 23 104 -3 103 -3 13 -75
c26 -154 130 -294 267 -360 129 -61 329 -64 443 -6 l48 24 29 -25 c28 -24 29
-24 211 -21 174 3 185 4 207 25 l24 23 34 -25 34 -25 369 0 370 0 34 26 c18
14 33 21 33 16 0 -21 69 -42 138 -42 54 0 75 4 95 20 26 20 26 20 58 1 31 -19
54 -20 597 -20 569 -1 594 1 615 35 6 10 17 8 52 -10 26 -14 80 -29 131 -36
244 -35 435 51 528 237 34 66 45 123 46 219 0 178 -78 297 -297 450 -24 16
-43 35 -43 42 0 8 25 -8 56 -34 49 -43 61 -48 105 -48 47 -1 53 2 91 42 l40
44 -4 146 c-3 120 -8 154 -23 187 -38 76 -129 114 -295 122 -118 6 -202 -10
-278 -52 -55 -31 -63 -31 -92 0 -13 14 -40 29 -59 35 -40 11 -1040 14 -1104 3
-64 -10 -89 -45 -126 -179 -18 -66 -39 -139 -46 -164 l-12 -45 -10 40 c-6 22
-20 85 -32 141 l-21 100 45 100 c64 138 56 119 243 539 219 491 501 1114 559
1235 88 185 105 230 110 305 7 93 -15 162 -70 223 -44 47 -94 76 -221 127
l-79 32 -3 119 c-7 291 -62 608 -150 874 -236 704 -722 1261 -1389 1590 -88
44 -182 88 -210 98 -31 11 -49 24 -48 33 0 8 18 93 38 189 28 135 41 178 57
190 96 73 128 122 128 200 0 50 -29 122 -63 158 -68 73 -188 89 -273 37 -88
-54 -126 -169 -88 -265 l16 -40 -45 -62 c-75 -104 -143 -157 -103 -79 22 41
20 84 -5 132 -24 48 -66 69 -135 69 -91 0 -144 -60 -144 -162 0 -45 -5 -58
-29 -86 -17 -17 -34 -32 -40 -32 -30 0 -141 198 -191 341 l-24 66 27 34 c39
52 57 102 57 161 -1 176 -191 284 -351 200z m166 -86 c68 -29 96 -126 56 -192
-17 -29 -72 -63 -103 -65 -7 0 -5 -4 6 -8 13 -5 32 -45 62 -130 50 -142 111
-273 164 -351 51 -75 147 -164 194 -180 148 -48 352 97 529 379 l37 60 -25 37
c-35 52 -34 104 4 146 26 29 35 33 78 32 60 -1 98 -24 114 -71 23 -71 -22
-145 -96 -159 -32 -6 -32 -7 -55 -107 -70 -316 -159 -656 -182 -700 -6 -13
-15 -16 -26 -11 -9 4 -46 15 -82 25 l-65 18 55 -5 56 -6 27 104 c15 56 38 144
53 193 14 50 34 123 45 164 10 41 23 79 28 85 12 15 25 74 14 61 -5 -5 -33
-42 -61 -81 -60 -82 -165 -174 -253 -221 -63 -34 -106 -41 -141 -22 -11 6 -21
9 -23 7 -6 -6 -35 -221 -30 -228 2 -3 43 -12 90 -19 47 -7 84 -15 82 -17 -2
-3 -74 5 -158 17 -399 56 -1080 24 -1305 -61 -15 -6 -28 -9 -30 -7 -8 7 -115
430 -149 584 -42 192 -44 223 -15 216 11 -3 20 -1 20 3 0 5 -20 10 -45 10
-116 4 -164 126 -81 203 37 35 114 36 150 2 49 -47 52 -135 5 -182 -18 -18
-19 -21 -3 -52 41 -78 142 -213 209 -275 129 -120 235 -155 349 -112 102 39
174 119 269 300 50 95 137 321 137 357 0 7 -18 31 -40 52 -34 32 -40 44 -40
78 0 67 17 99 63 122 50 25 66 26 112 7z m-652 -560 c3 -7 0 -31 -6 -53 l-10
-40 -24 27 c-13 15 -23 37 -23 48 0 36 51 50 63 18z m1209 7 c23 -20 23 -30
-1 -84 -14 -35 -17 -58 -12 -113 6 -65 6 -69 -17 -77 -13 -5 -46 -9 -73 -9
-42 0 -49 3 -49 20 0 10 6 23 14 27 22 13 106 120 106 135 0 8 -7 23 -15 34
-20 26 -19 61 3 73 23 14 23 14 44 -6z m-1134 -207 c23 -27 42 -55 42 -62 0
-29 -123 -17 -147 14 -15 18 -15 74 -2 112 6 17 7 6 3 -36 -5 -70 2 -81 61
-91 35 -6 37 -5 27 13 -6 11 -10 29 -9 39 1 11 -3 19 -10 18 -7 -2 -13 5 -13
15 0 9 -7 26 -15 36 -8 11 -15 25 -14 30 0 6 8 0 17 -14 9 -13 36 -47 60 -74z
m-554 -337 c13 -67 10 -74 -51 -99 -169 -68 -430 -215 -568 -319 -224 -168
-446 -396 -586 -602 l-40 -59 -42 27 c-23 15 -44 28 -46 30 -5 3 38 72 88 138
153 204 385 428 606 587 66 47 283 177 365 218 62 31 248 109 261 110 4 0 9
-14 13 -31z m2279 -62 c430 -208 757 -474 1024 -831 258 -346 439 -804 498
-1261 14 -113 34 -385 28 -385 -1 0 -27 11 -56 24 l-54 23 -6 139 c-30 631
-297 1228 -752 1679 -234 231 -403 354 -691 497 l-181 90 10 49 c5 27 14 49
19 49 5 0 78 -33 161 -73z m-550 -114 c-7 -2 -19 -2 -25 0 -7 3 -2 5 12 5 14
0 19 -2 13 -5z m-238 -52 c83 -12 199 -32 260 -45 95 -21 114 -29 137 -55 33
-36 38 -94 11 -123 -21 -23 -29 -23 -56 2 -102 96 -797 139 -1302 81 -165 -19
-217 -32 -280 -65 -56 -30 -93 -16 -97 37 -3 38 22 76 63 98 44 22 246 64 379
79 52 5 111 12 130 14 19 2 163 3 320 1 225 -2 317 -7 435 -24z m-1706 -370
c31 -20 -28 -110 -86 -132 -38 -14 -73 -11 -73 6 0 28 29 72 67 104 38 31 66
38 92 22z m1514 -6 c300 -45 565 -145 812 -306 329 -214 568 -480 730 -814 49
-100 119 -285 107 -285 -4 0 -21 8 -38 19 -24 14 -41 43 -79 132 -99 230 -229
422 -409 603 -209 210 -428 353 -721 471 -321 129 -819 152 -1195 55 -353 -90
-639 -252 -891 -503 -158 -158 -281 -329 -383 -534 -56 -112 -123 -320 -156
-486 -27 -134 -34 -155 -58 -174 -15 -12 -30 -22 -34 -23 -11 0 3 80 34 195
16 61 42 164 59 230 38 153 68 235 135 362 100 193 215 348 368 497 297 291
596 447 1026 535 189 39 175 38 398 40 129 1 226 -4 295 -14z m1084 -15 c62
-37 124 -150 76 -136 -10 3 -37 10 -60 16 -33 8 -48 20 -73 56 -29 44 -30 47
-14 65 21 24 31 24 71 -1z m-4153 -456 c3 -26 6 -62 6 -80 0 -32 -2 -34 -33
-34 -18 0 -57 -6 -87 -14 -30 -8 -56 -14 -56 -13 -1 1 -9 29 -18 62 -10 33
-19 68 -22 77 -5 16 0 18 121 42 11 2 34 4 51 5 30 1 32 -1 38 -45z m2990 -19
c400 -60 764 -275 1028 -607 57 -71 154 -226 146 -233 -2 -2 -21 -2 -41 2 -33
5 -41 13 -72 69 -111 198 -377 439 -620 561 -287 145 -629 192 -931 130 -374
-77 -606 -208 -847 -478 -83 -93 -176 -227 -228 -330 -37 -74 -77 -119 -105
-119 -34 0 91 249 195 385 165 218 346 368 584 483 149 73 313 120 487 142
109 13 301 11 404 -5z m-2466 -140 c54 -50 140 -153 131 -158 -2 -1 -37 -19
-76 -39 l-73 -37 -12 22 c-6 12 -40 52 -75 89 l-64 66 48 55 c26 31 51 56 54
56 3 1 33 -24 67 -54z m-460 -72 c-3 -15 -18 -19 -78 -24 -41 -3 -76 -5 -78
-4 -1 1 0 9 4 18 7 20 24 24 97 26 51 1 58 -1 55 -16z m-601 -78 c31 -26 61
-44 68 -41 7 2 -7 -33 -30 -77 -23 -45 -44 -92 -47 -104 l-6 -22 -77 26 c-42
14 -79 31 -82 39 -8 22 94 224 113 224 3 0 30 -20 61 -45z m323 17 c0 -11
-106 -102 -119 -102 -23 0 -9 29 34 69 40 37 85 54 85 33z m498 -26 c29 -15
59 -47 80 -83 19 -35 14 -39 -15 -12 -16 14 -54 42 -85 63 -89 59 -75 81 20
32z m4609 -88 c42 -46 56 -104 33 -138 -9 -13 -16 -9 -44 23 -19 21 -36 53
-39 73 -11 64 12 83 50 42z m-1946 -67 c30 -5 82 -17 115 -27 l59 -17 -44 -15
c-38 -13 -58 -13 -142 -2 -188 25 -448 -6 -577 -68 -34 -16 -39 -16 -64 -2
-16 8 -28 18 -28 21 0 18 192 86 305 107 66 13 305 14 376 3z m-2496 -83 c8
-28 15 -63 15 -77 0 -30 -16 -59 -26 -49 -19 20 -32 178 -14 178 5 0 16 -23
25 -52z m-860 -40 c-8 -91 -17 -112 -35 -78 -19 35 5 160 30 160 8 0 9 -25 5
-82z m3886 8 c40 -17 67 -51 108 -136 l30 -61 -27 5 c-15 3 -52 8 -82 11 -30
3 -144 14 -252 26 -160 17 -207 19 -250 10 -109 -24 -195 -102 -228 -208 -10
-32 -23 -107 -29 -168 -66 -638 -70 -668 -102 -712 -16 -23 -47 -81 -69 -128
-22 -48 -78 -155 -124 -238 -47 -84 -86 -157 -88 -164 -2 -6 48 -50 111 -97
63 -47 116 -87 118 -89 3 -4 -12 -151 -67 -664 -17 -150 -30 -304 -30 -342 0
-89 22 -156 67 -202 l34 -36 -85 -27 c-146 -45 -170 -47 -226 -19 -93 46 -125
130 -215 553 -7 36 -73 310 -145 610 -165 686 -161 670 -210 885 -23 99 -64
270 -91 380 -55 217 -60 264 -33 320 30 64 16 60 629 205 231 55 472 113 535
129 294 76 539 141 580 154 59 20 100 20 141 3z m-1302 -107 c28 -6 61 -19 73
-29 l23 -19 -24 -1 c-38 0 -175 -33 -441 -107 -9 -2 -8 1 4 9 10 7 49 37 87
66 116 89 169 105 278 81z m-1478 -84 l57 -7 -19 -83 c-18 -82 -54 -169 -67
-163 -4 2 -34 14 -67 26 -33 13 -68 29 -78 37 -17 13 -17 15 7 63 14 27 30 71
37 97 11 45 13 47 43 41 17 -3 56 -8 87 -11z m-271 -68 c0 -29 -57 -117 -76
-117 -8 0 -14 5 -14 10 0 26 65 130 81 130 5 0 9 -10 9 -23z m-766 -79 c25
-45 26 -48 7 -48 -31 0 -90 97 -75 122 8 13 34 -15 68 -74z m3921 15 c270 -31
492 -57 494 -59 2 -2 -18 -35 -43 -73 -26 -39 -79 -144 -118 -233 -97 -223
-272 -623 -297 -680 -19 -42 -27 -48 -74 -63 -218 -71 -354 -258 -333 -457 7
-68 17 -91 58 -134 l29 -31 -64 -144 c-215 -478 -288 -645 -298 -682 -14 -53
-4 -148 21 -198 11 -20 35 -53 54 -73 l34 -37 -66 5 c-37 3 -103 8 -147 11
-109 8 -158 37 -192 112 -30 66 -30 74 16 508 16 160 46 445 65 635 159 1539
154 1497 172 1533 45 87 84 116 159 117 22 0 261 -25 530 -57z m-4066 -51 c11
-21 40 -61 65 -89 25 -28 46 -53 46 -55 0 -3 -27 -29 -61 -58 l-61 -53 -44 44
c-25 24 -59 65 -76 91 -16 27 -34 45 -39 42 -5 -3 -7 -9 -4 -14 3 -4 1 -10 -5
-12 -14 -4 46 -120 88 -170 11 -13 19 -15 33 -7 24 13 24 7 0 -15 -18 -17 -21
-15 -65 47 -37 52 -86 145 -86 163 0 2 6 4 14 4 8 0 16 4 18 9 2 6 146 109
155 111 2 0 11 -17 22 -38z m5164 -77 c36 -6 107 -62 107 -85 0 -8 -194 81
-209 96 -3 3 10 3 29 0 19 -3 52 -8 73 -11z m-4433 -5 c0 -22 -40 -48 -89 -59
-70 -15 -74 -15 -61 9 6 12 35 27 73 39 75 23 77 24 77 11z m4240 -80 c91 -43
233 -106 315 -140 83 -34 175 -72 205 -85 30 -12 177 -75 325 -140 149 -64
308 -133 354 -152 189 -78 243 -118 257 -189 12 -63 -2 -106 -104 -324 -116
-251 -268 -585 -485 -1075 -288 -648 -336 -750 -349 -745 -7 2 -56 7 -109 10
l-97 5 15 38 c12 28 21 37 39 37 37 0 31 33 -10 53 l-34 16 -22 -45 c-11 -25
-24 -44 -28 -42 -4 2 -28 13 -54 25 -39 18 -46 25 -41 43 3 12 16 26 29 31 13
4 24 15 24 22 0 19 -39 52 -78 65 -27 9 -34 9 -39 -4 -3 -8 4 -25 17 -39 20
-22 21 -25 6 -47 -9 -14 -27 -56 -40 -94 -13 -38 -33 -89 -45 -114 -11 -25
-21 -66 -21 -92 0 -41 5 -54 37 -89 31 -34 37 -48 37 -87 l1 -47 -42 -3 c-58
-4 -77 18 -92 104 -27 153 -33 175 -57 203 -46 55 -74 61 -278 61 l-185 0 -35
-31 -36 -31 -192 90 c-106 50 -269 125 -363 166 -182 82 -224 112 -250 181
-13 33 -14 50 -5 89 6 26 102 249 214 494 366 803 580 1281 728 1622 124 285
134 302 208 334 53 24 98 12 280 -74z m-4610 66 c46 -14 69 -46 33 -46 -35 0
-113 32 -113 46 0 17 22 18 80 0z m1583 -69 c-5 -32 13 -120 140 -672 36 -154
68 -295 72 -313 6 -28 1 -42 -28 -86 -151 -227 -180 -452 -77 -594 48 -67 102
-97 174 -97 34 0 73 4 87 8 23 8 27 5 32 -20 4 -15 25 -104 47 -198 22 -93 63
-271 91 -395 30 -133 62 -250 79 -286 30 -67 87 -136 135 -166 29 -18 25 -18
-297 -18 l-328 0 -61 128 c-34 70 -92 192 -129 272 -164 351 -276 587 -525
1105 -343 715 -325 674 -325 736 0 85 28 120 145 184 289 157 740 419 750 435
13 21 23 8 18 -23z m-1214 -155 c17 -38 31 -73 31 -79 0 -13 -105 -43 -176
-50 -30 -3 -54 -10 -54 -14 0 -5 8 -9 18 -9 18 1 122 22 185 38 32 9 39 7 48
-9 5 -11 7 -23 4 -28 -3 -5 0 -11 7 -13 30 -10 -194 -78 -257 -78 l-24 0 0
140 -1 140 38 1 c20 0 55 6 77 14 67 22 70 20 104 -53z m-527 -342 l-4 -50 34
0 c37 0 138 -27 152 -40 5 -5 -19 0 -54 11 -34 10 -79 19 -101 19 l-39 0 0 55
c0 30 3 55 8 55 4 0 5 -22 4 -50z m45 34 c-3 -3 -12 -4 -19 -1 -8 3 -5 6 6 6
11 1 17 -2 13 -5z m-388 -66 c11 -34 20 -62 18 -64 -1 -1 -21 -11 -43 -22 -23
-12 -56 -33 -74 -48 -30 -26 -33 -27 -43 -9 -5 10 -28 35 -51 56 l-40 38 28
23 c38 30 147 88 168 88 11 0 23 -19 37 -62z m434 55 c-7 -2 -19 -2 -25 0 -7
3 -2 5 12 5 14 0 19 -2 13 -5z m107 -28 c23 -9 28 -14 15 -14 -11 0 -31 6 -45
14 -31 18 -16 18 30 0z m-157 -161 c55 -19 61 -34 12 -34 -46 0 -135 20 -135
30 0 23 62 25 123 4z m-288 -53 c-35 -32 -123 -74 -142 -67 -15 6 -13 11 16
38 32 30 70 45 121 47 24 1 24 1 5 -18z m515 -28 c35 -23 80 -65 80 -75 0 -5
-16 -2 -35 6 -41 17 -105 64 -105 77 0 15 34 10 60 -8z m372 -65 c49 -79 78
-132 78 -145 0 -8 -111 -33 -144 -33 -8 0 -26 25 -40 56 -14 30 -35 67 -46 81
l-20 26 57 43 c32 23 61 43 64 43 3 1 26 -32 51 -71z m-1078 -75 c-16 -73 -35
-133 -43 -133 -30 0 -15 106 20 141 26 26 30 24 23 -8z m-234 -59 l65 -6 2
-94 1 -94 -26 -6 c-15 -3 -54 -12 -86 -20 -32 -8 -61 -13 -62 -11 -8 7 -17
216 -10 232 4 12 13 15 29 12 12 -4 51 -9 87 -13z m1093 -2 c24 -26 47 -87 47
-124 0 -30 -1 -31 -16 -16 -25 25 -75 158 -59 158 6 0 19 -8 28 -18z m-1215
-394 c6 -16 8 -28 3 -28 -18 0 -31 94 -29 217 l1 128 7 -145 c4 -80 12 -157
18 -172z m372 134 c39 -67 48 -92 32 -92 -24 0 -92 102 -92 138 0 38 18 25 60
-46z m-351 -112 c1 -41 -19 23 -24 76 l-5 59 14 -60 c8 -33 15 -67 15 -75z
m1222 78 c-13 -39 -68 -118 -82 -118 -18 0 -8 32 33 101 43 73 70 82 49 17z
m181 -112 l86 -38 -15 -52 c-17 -57 -81 -172 -110 -199 -19 -16 -19 -16 -19
19 1 27 10 46 35 72 40 43 86 111 79 117 -3 3 -16 -12 -30 -32 -29 -44 -91
-113 -101 -113 -4 0 -15 8 -25 18 -10 9 -39 36 -65 60 l-48 43 47 52 c26 29
51 62 57 75 6 12 13 21 17 20 4 -2 45 -20 92 -42z m-780 -73 c36 -17 48 -27
40 -35 -23 -23 -142 24 -142 57 0 19 30 13 102 -22z m376 -15 c-11 -35 -146
-75 -163 -49 -7 13 10 23 75 42 69 21 93 23 88 7z m-433 -113 c28 -9 55 -19
62 -21 8 -2 1 -27 -21 -79 -18 -41 -35 -77 -38 -80 -13 -14 -238 96 -238 116
0 15 29 70 57 106 l24 33 52 -29 c29 -16 75 -36 102 -46z m-248 -155 c-2 -11
-6 -23 -10 -26 -16 -16 -2 -28 96 -74 l102 -50 12 28 c7 15 12 35 13 45 0 9 5
17 10 17 13 0 13 2 -6 -54 -20 -57 -22 -57 -150 6 -104 50 -110 57 -89 97 18
36 26 40 22 11z m1173 -14 c8 -13 52 -69 98 -124 156 -189 408 -394 632 -515
l85 -46 28 -70 c15 -39 27 -73 27 -75 0 -6 -185 94 -282 152 -107 63 -265 183
-375 283 -87 79 -303 314 -303 330 0 8 63 88 70 88 3 1 12 -10 20 -23z m-1103
-62 c-6 -6 -77 30 -77 39 0 4 18 -2 40 -14 22 -12 38 -24 37 -25z m68 18 c-7
-8 -35 7 -35 18 0 6 7 6 20 -2 10 -7 17 -14 15 -16z m648 -76 c-30 -18 -136
-57 -141 -52 -2 3 4 22 15 42 16 31 30 42 79 60 l59 22 3 -31 c3 -21 -2 -34
-15 -41z m3225 -950 c83 -26 98 -36 55 -36 -17 0 -59 -9 -94 -20 -165 -51
-276 -186 -330 -400 -12 -47 -27 -88 -33 -92 -6 -4 -85 -8 -176 -8 -192 0
-221 -9 -239 -77 -19 -66 -14 -188 10 -243 l21 -49 -44 -55 c-23 -30 -49 -57
-55 -60 -10 -4 -13 45 -13 227 0 128 -3 289 -7 358 l-6 126 41 45 c66 71 78
126 42 186 -27 44 -26 48 18 56 20 3 96 21 167 41 l130 35 220 -6 c193 -4 229
-7 293 -28z m1429 -36 c14 -11 22 -20 17 -20 -5 -1 -28 -5 -51 -9 -24 -5 -43
-7 -43 -5 0 1 4 14 10 28 11 31 33 33 67 6z m-5379 -136 l52 -15 0 -129 c0
-107 -3 -130 -15 -130 -8 0 -19 17 -26 40 -23 76 -101 120 -187 106 -75 -12
-116 -71 -102 -148 10 -54 50 -101 158 -183 127 -98 159 -131 195 -205 29 -59
32 -73 32 -160 0 -107 -17 -158 -74 -223 -89 -101 -302 -131 -474 -67 l-57 21
0 150 c0 140 1 149 19 149 14 0 21 -10 26 -32 25 -114 104 -178 220 -178 49 0
60 4 91 33 42 38 54 94 35 165 -16 56 -52 96 -177 193 -167 128 -210 206 -202
364 3 66 10 91 31 127 31 53 77 94 127 116 74 31 228 34 328 6z m4260 5 l53
-11 -3 -151 c-3 -135 -5 -152 -21 -155 -10 -2 -19 4 -23 15 -34 107 -85 162
-157 170 -78 9 -143 -44 -178 -143 -27 -77 -43 -240 -36 -384 10 -201 53 -308
140 -344 36 -15 54 -18 75 -10 l27 9 3 189 2 188 -30 28 c-16 15 -30 33 -30
39 0 8 49 11 155 11 170 0 180 -4 130 -54 l-25 -25 0 -202 0 -201 -37 -38
c-59 -58 -137 -82 -253 -78 -114 4 -184 32 -253 100 -97 97 -132 234 -124 483
5 177 17 237 71 351 94 199 250 263 514 213z m3407 0 c93 -18 95 -21 95 -165
0 -111 -2 -125 -17 -122 -9 2 -22 21 -30 43 -33 96 -131 141 -219 99 -43 -20
-64 -59 -64 -117 0 -67 41 -121 168 -220 164 -129 210 -196 219 -322 10 -132
-49 -248 -156 -308 -49 -28 -65 -31 -161 -35 -110 -5 -187 6 -246 34 l-34 16
0 129 c0 107 2 129 15 129 8 0 21 -15 29 -33 38 -92 123 -143 222 -135 50 4
62 10 90 40 59 65 56 161 -9 235 -17 20 -73 69 -124 109 -168 134 -220 224
-210 365 14 215 172 309 432 258z m-8240 -8 c3 -5 -12 -25 -32 -45 l-38 -35 0
-482 0 -481 33 -29 c62 -55 52 -59 -148 -59 -99 0 -180 2 -180 4 0 3 18 25 39
50 28 32 42 59 46 88 3 24 5 238 3 476 l-3 432 -38 35 c-21 19 -35 40 -32 45
8 13 342 13 350 1z m1310 -28 c73 -38 117 -82 147 -148 19 -41 23 -66 22 -145
0 -135 -42 -221 -136 -282 -26 -17 -48 -33 -48 -34 0 -7 131 -316 155 -368 14
-30 41 -66 60 -81 19 -14 35 -30 35 -36 0 -6 -51 -9 -132 -7 l-133 3 -84 223
-84 222 -43 0 -44 0 0 -177 0 -176 40 -37 c22 -20 40 -42 40 -48 0 -9 -52 -12
-185 -12 -133 0 -185 3 -185 12 0 6 18 27 39 47 37 34 39 40 46 114 4 42 6
255 3 473 l-4 395 -42 40 c-23 23 -39 45 -36 51 4 6 96 8 258 6 l251 -3 60
-32z m927 -445 c60 -266 113 -501 119 -522 6 -22 28 -57 50 -79 21 -22 39 -44
39 -49 0 -4 -76 -8 -170 -8 -163 0 -170 1 -170 20 0 11 4 20 9 20 21 0 41 34
41 68 -1 36 -20 128 -35 165 -6 15 -23 17 -141 17 -130 0 -134 -1 -139 -22
-20 -89 -25 -118 -25 -155 0 -35 5 -45 30 -63 17 -12 30 -28 30 -36 0 -11 -27
-14 -150 -14 -166 0 -179 6 -116 54 37 27 59 82 90 221 9 39 50 214 92 390 85
357 91 406 57 430 -13 9 -23 23 -23 31 0 12 26 14 153 14 l152 0 107 -482z
m871 355 c5 -96 4 -129 -6 -135 -19 -12 -21 -10 -42 35 -30 62 -66 77 -195 77
l-105 0 0 -170 0 -170 91 0 c64 0 96 4 110 15 39 29 44 20 44 -79 0 -52 -4
-97 -9 -100 -5 -3 -25 1 -45 9 -21 9 -67 15 -111 15 l-75 0 2 -182 3 -183 55
-3 c132 -8 226 28 266 103 10 19 22 35 27 35 18 0 19 -38 2 -156 l-18 -124
-314 0 c-346 0 -346 0 -273 59 l40 32 0 475 0 474 -45 43 c-25 24 -45 47 -45
50 0 4 143 7 318 7 l319 0 6 -127z m457 115 c0 -7 -16 -26 -35 -41 l-35 -28 0
-461 0 -461 99 5 c114 6 135 15 184 84 38 53 60 59 52 12 -6 -36 -25 -206 -25
-225 0 -10 -67 -13 -300 -13 -228 0 -300 3 -300 12 0 7 17 29 38 51 l37 38 -1
459 c-1 253 -4 470 -8 482 -3 13 -19 32 -36 43 -16 11 -30 28 -30 38 0 16 15
17 180 17 137 0 180 -3 180 -12z m2068 -413 c143 -650 130 -602 175 -649 21
-23 43 -47 49 -53 8 -10 -30 -13 -186 -13 -169 0 -196 2 -196 15 0 9 10 19 23
24 12 5 31 18 41 30 19 21 19 27 8 106 -7 47 -15 92 -18 100 -5 12 -30 15
-139 15 l-133 0 -21 -89 c-27 -113 -27 -112 9 -146 53 -51 45 -55 -115 -55
-162 0 -174 6 -109 55 20 15 42 42 49 60 30 70 215 859 215 914 0 19 -11 43
-30 64 -16 19 -30 38 -30 41 0 4 71 5 158 4 l157 -3 93 -420z m680 90 c107
-377 101 -359 107 -354 7 8 111 342 161 517 l48 172 163 0 c137 0 163 -2 163
-15 0 -8 -12 -22 -27 -32 -16 -10 -31 -22 -35 -28 -4 -5 -8 -227 -8 -491 l0
-482 35 -31 c65 -57 56 -61 -134 -61 -109 0 -172 4 -176 11 -4 5 11 27 34 48
l41 38 -1 369 c0 213 -4 358 -9 344 -5 -14 -29 -92 -54 -175 -25 -82 -78 -258
-119 -390 l-74 -240 -40 -3 c-33 -2 -42 1 -47 15 -28 96 -143 500 -176 618
-23 83 -48 174 -56 203 -8 28 -16 52 -17 52 -2 0 -1 -766 1 -792 1 -10 20 -30
42 -44 71 -47 57 -54 -105 -54 -94 0 -145 4 -145 10 0 6 18 28 40 49 l41 39
-3 477 -3 477 -32 29 c-63 55 -52 60 129 57 l163 -3 93 -330z m1352 199 c0
-84 -4 -134 -10 -132 -5 2 -20 23 -32 48 -13 25 -34 51 -48 57 -15 8 -68 13
-137 13 l-113 0 0 -169 0 -169 63 -7 c63 -7 140 6 152 25 3 6 13 10 21 10 11
0 14 -19 14 -95 0 -108 -7 -118 -64 -91 -22 10 -61 16 -110 16 l-76 0 2 -182
3 -183 74 -3 c141 -6 206 21 263 108 12 18 19 22 28 14 8 -8 6 -42 -11 -138
l-22 -126 -313 0 c-185 0 -315 4 -319 9 -3 6 14 28 37 50 l43 40 0 468 c0 427
-2 471 -17 495 -10 15 -27 29 -38 33 -11 3 -20 15 -20 26 0 18 10 19 315 19
l315 0 0 -136z m-2584 61 c34 -19 66 -44 69 -56 6 -17 -38 -226 -66 -317 l-11
-32 -27 19 c-14 11 -39 21 -53 23 l-27 3 22 45 c19 40 21 61 20 198 0 83 2
152 5 152 3 0 33 -16 68 -35z m-351 -259 c18 -41 38 -77 44 -81 25 -15 6 -20
-79 -20 l-90 0 0 43 c0 45 23 111 43 124 32 20 48 7 82 -66z m-4285 56 c0 -5
16 -25 35 -45 45 -46 29 -49 -19 -3 -35 33 -46 56 -26 56 6 0 10 -4 10 -8z
m2508 -8 c22 -6 14 -51 -10 -58 -50 -13 -58 -8 -58 34 0 39 1 40 28 34 15 -3
33 -7 40 -10z m4537 6 c27 0 48 -29 36 -49 -5 -7 -27 -15 -50 -18 l-41 -6 0
43 c0 34 3 41 16 36 9 -3 26 -6 39 -6z m-4335 -252 c0 -173 -7 -215 -31 -191
-9 9 -10 21 -1 50 13 44 7 246 -9 274 -12 24 -4 39 22 39 18 0 19 -8 19 -172z
m-2462 58 l-3 -34 -58 51 -58 52 38 3 c20 1 46 8 58 16 19 13 20 11 23 -20 2
-19 2 -49 0 -68z m5144 -87 c2 -100 0 -183 -4 -186 -5 -2 -8 5 -8 16 0 11 -16
91 -35 177 -19 86 -35 160 -35 165 0 5 18 9 40 9 l39 0 3 -181z m1895 69 c39
-82 66 -114 183 -208 53 -43 109 -93 124 -110 47 -56 25 -104 -37 -81 -17 7
-38 33 -63 81 -57 109 -114 139 -198 102 l-46 -21 0 150 c0 82 2 149 4 149 2
0 17 -28 33 -62z m-3599 -103 c-2 -56 -7 -80 -15 -79 -7 1 -76 2 -153 3 l-140
1 0 78 0 77 155 0 156 0 -3 -80z m-4010 -47 c13 -15 58 -51 100 -81 100 -71
124 -98 120 -132 -8 -67 -68 -48 -107 34 -12 24 -36 61 -53 82 -26 33 -37 39
-68 39 -33 0 -38 3 -43 29 -8 36 2 73 17 64 6 -4 21 -19 34 -35z m4490 -143
c1 -42 -2 -54 -8 -40 -5 11 -8 49 -8 85 0 47 2 58 8 40 4 -14 8 -52 8 -85z
m-1518 37 c0 -5 -12 -15 -27 -23 -16 -7 -59 -37 -97 -66 -37 -29 -72 -53 -77
-53 -5 0 -9 28 -9 61 l0 62 68 -7 c55 -5 73 -3 102 13 19 10 36 19 38 20 1 0
2 -3 2 -7z m4438 -38 c32 -6 27 -27 -13 -63 -59 -52 -85 -38 -85 47 0 32 1 33
38 27 20 -3 47 -8 60 -11z m-5526 -184 c5 0 8 -10 6 -22 -2 -17 -10 -23 -27
-23 -31 0 -52 31 -31 45 8 5 21 8 28 5 8 -3 18 -5 24 -5z m3410 -6 c3 -3 3
-14 1 -25 -8 -29 -63 -22 -74 9 -8 20 -6 22 30 22 21 0 40 -3 43 -6z"/>
<path d="M4078 8953 c7 -3 16 -2 19 1 4 3 -2 6 -13 5 -11 0 -14 -3 -6 -6z"/>
<path d="M4120 8910 c0 -5 5 -10 11 -10 5 0 7 5 4 10 -3 6 -8 10 -11 10 -2 0
-4 -4 -4 -10z"/>
<path d="M6200 8880 c-9 -6 -10 -10 -3 -10 6 0 15 5 18 10 8 12 4 12 -15 0z"/>
<path d="M4154 8829 c-3 -6 -1 -16 5 -22 8 -8 11 -5 11 11 0 24 -5 28 -16 11z"/>
<path d="M4150 8753 c1 -5 10 -42 20 -83 12 -47 18 -59 15 -33 -3 23 -8 48
-11 57 -3 9 -2 16 3 16 5 0 16 -26 25 -57 9 -32 30 -96 47 -143 16 -47 48
-154 71 -239 35 -126 40 -155 29 -162 -15 -11 -12 -10 116 16 90 19 103 26 80
45 -8 7 -15 19 -15 27 0 8 -4 11 -10 8 -6 -3 -7 1 -4 10 4 8 2 21 -4 28 -22
28 -113 208 -110 220 2 7 -14 30 -35 52 -20 22 -61 76 -90 120 -35 53 -60 81
-74 83 -12 2 -25 12 -28 23 -6 18 -25 27 -25 12z"/>
<path d="M4191 8574 c0 -11 3 -14 6 -6 3 7 2 16 -1 19 -3 4 -6 -2 -5 -13z"/>
<path d="M4682 8330 c0 -19 2 -27 5 -17 2 9 2 25 0 35 -3 9 -5 1 -5 -18z"/>
<path d="M4292 8175 c0 -11 3 -29 8 -40 11 -25 11 1 0 35 -6 20 -8 21 -8 5z"/>
<path d="M5750 8580 c0 -5 7 -10 15 -10 8 0 15 5 15 10 0 6 -7 10 -15 10 -8 0
-15 -4 -15 -10z"/>
<path d="M3974 8256 c-118 -51 -220 -106 -364 -195 -131 -81 -171 -111 -164
-122 3 -5 -1 -7 -8 -4 -7 3 -33 -13 -58 -36 -25 -23 -37 -36 -28 -29 16 11 17
10 7 -19 -12 -34 -23 -39 -37 -16 -6 13 -20 5 -70 -41 -34 -31 -59 -61 -56
-66 5 -7 2 -8 -6 -3 -22 14 -275 -264 -358 -394 -33 -52 -34 -55 -16 -68 50
-37 48 -38 120 63 128 181 359 413 550 555 143 106 388 244 554 314 36 15 66
28 68 30 8 7 -12 75 -22 75 -6 0 -56 -20 -112 -44z m-374 -226 c0 -9 -41 -30
-58 -30 -9 1 41 39 51 40 4 0 7 -5 7 -10z m-284 -216 c-3 -9 -6 -21 -6 -27 0
-7 -4 -6 -10 3 -8 13 -10 12 -10 -2 0 -10 -6 -18 -12 -19 -7 0 -21 -2 -31 -4
-12 -2 -5 9 20 30 42 37 59 44 49 19z"/>
<path d="M6225 8244 c-3 -20 -5 -37 -3 -39 2 -2 64 -32 138 -67 274 -131 477
-275 713 -507 270 -266 443 -522 580 -856 70 -169 111 -314 157 -550 15 -77
30 -223 30 -296 0 -103 7 -124 47 -143 20 -9 38 -15 40 -12 8 7 -16 309 -33
421 -44 296 -171 675 -306 915 -210 372 -529 708 -884 932 -112 71 -434 238
-458 238 -8 0 -17 -16 -21 -36z"/>
<path d="M5570 8001 l0 -50 38 -6 c20 -3 88 -15 150 -27 62 -11 115 -18 119
-14 3 3 -2 6 -13 7 -17 0 -17 1 2 9 12 4 24 18 27 30 3 12 3 20 1 17 -3 -3
-15 5 -28 18 -22 21 -96 40 -248 60 l-48 6 0 -50z m103 -48 c-7 -2 -21 -2 -30
0 -10 3 -4 5 12 5 17 0 24 -2 18 -5z"/>
<path d="M6270 7321 c19 -17 39 -31 44 -31 15 0 -11 24 -46 43 l-33 19 35 -31z"/>
<path d="M6264 7287 c181 -137 354 -303 450 -430 80 -108 173 -257 208 -336
16 -36 35 -79 43 -96 7 -16 20 -47 29 -67 8 -22 22 -38 31 -38 20 0 18 7 -36
139 -88 216 -235 436 -412 618 -80 83 -105 102 -121 97 -15 -4 -17 -3 -7 4 10
7 -2 21 -50 60 -53 42 -65 48 -73 35 -5 -9 -11 -11 -15 -6 -3 5 -22 17 -41 26
l-35 16 29 -22z m81 -45 c-3 -3 -11 0 -18 7 -9 10 -8 11 6 5 10 -3 15 -9 12
-12z m204 -146 c22 -26 -6 -27 -38 0 -41 34 -43 64 -3 35 16 -11 34 -27 41
-35z m88 -93 c85 -97 115 -140 104 -147 -12 -8 -127 131 -123 147 2 7 0 9 -4
4 -9 -9 -54 32 -54 50 0 25 18 12 77 -54z m142 -196 c0 -9 -2 -9 -6 1 -2 6 -8
10 -13 7 -4 -3 -11 2 -14 10 -4 13 -2 14 14 5 11 -6 20 -16 19 -23z m49 -72
c-3 -3 -9 2 -12 12 -6 14 -5 15 5 6 7 -7 10 -15 7 -18z"/>
<path d="M3488 6868 c-31 -41 -41 -58 -34 -58 3 0 19 20 36 45 36 52 34 61 -2
13z"/>
<path d="M3513 6848 c-15 -20 -25 -38 -20 -38 3 0 12 11 21 25 17 26 16 35 -1
13z"/>
<path d="M3410 6750 c-6 -11 -8 -20 -6 -20 3 0 10 9 16 20 6 11 8 20 6 20 -3
0 -10 -9 -16 -20z"/>
<path d="M3350 6580 c-6 -11 -8 -20 -6 -20 3 0 10 9 16 20 6 11 8 20 6 20 -3
0 -10 -9 -16 -20z"/>
<path d="M3275 6488 c-26 -72 -32 -99 -29 -124 3 -23 3 -25 -4 -9 -7 15 -15
-5 -35 -90 -14 -60 -33 -130 -42 -155 -16 -46 -55 -213 -55 -237 0 -10 6 -8
20 5 15 14 27 54 45 150 22 112 66 281 91 346 5 14 4 17 -4 12 -7 -4 -12 -3
-12 2 0 6 7 12 15 15 8 4 21 23 30 43 19 46 19 56 -1 24 l-15 -25 6 28 c5 27
-2 38 -10 15z m-2 -63 c-3 -9 -8 -14 -10 -11 -3 3 -2 9 2 15 9 16 15 13 8 -4z"/>
<path d="M6435 7661 c-5 -10 30 -81 41 -81 7 0 -9 35 -23 52 -18 21 -2 31 30
19 24 -9 58 -49 70 -83 4 -10 11 -18 16 -18 13 0 -22 60 -51 87 -28 26 -73 39
-83 24z"/>
<path d="M4238 6077 l-38 -11 0 -185 c0 -102 -3 -203 -7 -225 l-6 -38 34 7
c70 14 69 13 53 43 -8 15 -14 39 -14 54 0 22 7 28 47 42 53 18 55 17 75 -52
11 -36 16 -42 33 -37 11 3 32 8 47 11 28 6 28 6 10 33 -10 14 -56 104 -103
198 -46 95 -86 172 -89 172 -3 -1 -22 -6 -42 -12z m93 -248 c-3 -4 -21 -10
-38 -14 l-33 -7 0 94 1 93 38 -80 c21 -44 36 -83 32 -86z"/>
<path d="M4300 5470 c-27 -55 -50 -104 -50 -109 0 -10 177 -161 188 -160 4 0
31 51 61 114 44 92 52 117 42 129 -12 15 -176 126 -185 126 -3 0 -28 -45 -56
-100z"/>
<path d="M5506 6166 c-7 -17 -41 -107 -76 -200 -35 -93 -72 -176 -82 -186 -19
-17 -18 -18 17 -24 20 -4 42 -9 49 -12 9 -3 15 8 20 33 10 60 17 67 71 59 l47
-8 -4 -48 c-5 -48 -5 -48 29 -55 19 -3 42 -9 50 -12 13 -5 15 -2 9 12 -7 20
-29 218 -41 377 l-7 86 -34 4 c-32 4 -37 1 -48 -26z m33 -243 c1 -25 -3 -33
-16 -33 -43 1 -47 14 -22 86 l23 69 7 -45 c4 -25 8 -60 8 -77z"/>
<path d="M5401 5590 c-99 -98 -119 -146 -86 -209 24 -48 57 -53 115 -16 l39
25 25 -25 c31 -31 85 -34 110 -6 10 11 20 37 23 58 5 40 7 36 -91 177 -21 31
-46 56 -56 56 -9 0 -45 -27 -79 -60z"/>
<path d="M5421 5315 c-17 -20 -31 -38 -31 -41 0 -4 15 -3 34 0 24 5 39 2 49
-9 21 -20 27 -19 27 4 0 21 -31 81 -41 81 -4 0 -21 -16 -38 -35z"/>
<path d="M6626 5846 c-44 -56 -98 -125 -120 -153 -23 -29 -51 -55 -63 -59 -33
-9 -28 -19 19 -43 l42 -21 18 37 c26 53 28 54 76 33 46 -21 55 -47 27 -87 -15
-21 -14 -23 31 -42 26 -12 48 -21 50 -21 2 0 3 21 3 48 -1 26 15 121 35 211
20 91 35 166 33 167 -1 1 -18 8 -37 16 l-35 15 -79 -101z m64 -33 c-5 -16 -14
-53 -20 -84 l-11 -57 -30 15 c-17 8 -29 18 -27 21 12 26 84 131 90 132 4 0 3
-12 -2 -27z"/>
<path d="M6442 5455 c-89 -40 -131 -83 -132 -132 0 -28 45 -63 81 -63 41 0 36
-14 -11 -35 -44 -20 -48 -38 -8 -43 14 -2 31 -13 38 -27 20 -37 31 -19 24 36
-4 27 -3 49 2 49 5 0 22 -16 37 -35 34 -42 58 -44 87 -7 18 22 21 36 17 78 -8
80 -49 204 -67 203 -8 0 -39 -11 -68 -24z"/>
<path d="M6804 4951 c-154 -78 -300 -156 -326 -176 -67 -49 -125 -127 -144
-192 -31 -106 14 -222 106 -271 38 -20 54 -23 99 -18 61 7 80 16 139 63 23 19
42 30 42 25 0 -19 -81 -130 -123 -169 -23 -21 -68 -54 -100 -73 -31 -19 -57
-37 -57 -40 1 -5 289 -120 300 -120 3 0 5 67 5 150 0 106 4 153 13 162 9 9 12
7 12 -14 0 -70 46 -143 107 -169 122 -52 274 15 340 149 25 51 28 67 27 157 0
91 -7 125 -73 380 -40 154 -77 284 -81 288 -4 5 -133 -55 -286 -132z"/>
<path d="M7244 3814 c-8 -42 -20 -51 -42 -32 -33 29 -41 28 -76 -3 -57 -50
-63 -92 -29 -200 15 -49 33 -89 39 -89 24 0 140 40 171 59 52 32 68 65 55 110
-9 28 -21 41 -48 54 l-36 18 27 35 c15 19 25 36 24 38 -2 1 -21 12 -41 24
l-37 21 -7 -35z"/>
<path d="M3178 5554 c-36 -19 -36 -33 7 -224 19 -85 35 -167 35 -181 0 -14 3
-28 6 -31 4 -5 71 17 82 27 1 1 -7 23 -18 49 -11 26 -20 49 -20 50 0 1 23 13
50 26 l51 24 17 -24 c9 -13 24 -36 32 -51 l15 -28 33 30 33 30 -88 95 c-48 53
-112 124 -142 160 -29 35 -56 64 -60 64 -3 -1 -18 -8 -33 -16z m96 -148 c25
-33 46 -63 46 -67 0 -8 -61 -31 -67 -25 -2 1 -9 35 -17 73 -7 39 -17 77 -21
84 -14 25 11 -3 59 -65z"/>
<path d="M3381 5022 c-23 -97 -26 -157 -11 -196 12 -33 53 -59 80 -51 28 9 82
85 75 104 -5 13 -3 13 12 -1 52 -45 127 -13 127 56 0 20 -9 48 -20 63 -25 35
-147 100 -201 109 l-41 6 -21 -90z"/>
<path d="M3535 4802 c-15 -97 -14 -99 27 -52 14 17 35 30 47 30 33 0 33 17 -2
30 -17 6 -40 16 -49 21 -14 7 -18 3 -23 -29z"/>
<path d="M2428 5713 c7 -3 16 -2 19 1 4 3 -2 6 -13 5 -11 0 -14 -3 -6 -6z"/>
<path d="M2728 4336 l-27 -34 98 -114 c201 -233 432 -417 712 -567 97 -52 128
-64 93 -35 -10 8 -13 12 -5 8 11 -5 13 -3 8 10 -4 10 -10 28 -13 41 -4 17 -37
41 -116 87 -138 79 -336 227 -452 338 -86 82 -243 260 -253 287 -8 20 -16 16
-45 -21z"/>
<path d="M2301 4257 c-6 -8 -8 -17 -4 -20 3 -4 -1 -7 -10 -7 -9 0 -17 -4 -17
-9 0 -6 20 -3 45 6 25 8 45 17 45 20 0 3 -7 2 -16 -1 -22 -8 -40 4 -23 15 8 5
9 9 3 9 -6 0 -17 -6 -23 -13z"/>
<path d="M2122 2788 l3 -203 61 1 c130 3 193 83 181 231 -9 118 -66 173 -180
173 l-67 0 2 -202z"/>
<path d="M3067 2872 c-3 -20 -24 -125 -47 -232 -22 -107 -41 -202 -43 -210 -2
-12 16 -16 101 -18 56 -1 102 0 102 2 0 3 -20 103 -45 222 -25 119 -45 226
-45 239 0 39 -17 37 -23 -3z"/>
<path d="M6438 2675 c-25 -126 -48 -237 -50 -245 -2 -12 14 -15 100 -18 56 -1
102 0 102 2 0 8 -89 429 -98 461 -6 24 -17 -14 -54 -200z"/>
</g>
</svg>
