
<svg width="400" height="400" viewBox="0 0 400 400" fill="none" xmlns="http://www.w3.org/2000/svg">
  <rect width="400" height="400" fill="black"/>
  <!-- Crown -->
  <path d="M200 80 L190 110 L210 110 Z" fill="gold" />
  <circle cx="180" cy="70" r="6" fill="gold" />
  <circle cx="220" cy="70" r="6" fill="gold" />
  <circle cx="200" cy="60" r="6" fill="gold" />
  <!-- Roulette wheel -->
  <circle cx="200" cy="200" r="60" fill="darkred" stroke="gold" stroke-width="8" />
  <circle cx="200" cy="200" r="45" fill="black" />
  <!-- Chips -->
  <circle cx="140" cy="150" r="15" fill="red" stroke="white" stroke-width="4" />
  <circle cx="120" cy="170" r="15" fill="red" stroke="white" stroke-width="4" />
  <!-- Cards -->
  <rect x="150" y="220" width="40" height="60" rx="5" fill="white" stroke="black" />
  <text x="155" y="250" font-size="20" font-family="Arial" fill="black">A</text>
  <rect x="180" y="220" width="40" height="60" rx="5" fill="white" stroke="black" />
  <text x="185" y="250" font-size="20" font-family="Arial" fill="red">A</text>
  <rect x="210" y="220" width="40" height="60" rx="5" fill="white" stroke="black" />
  <text x="215" y="250" font-size="20" font-family="Arial" fill="black">A</text>
  <rect x="240" y="220" width="40" height="60" rx="5" fill="white" stroke="black" />
  <text x="245" y="250" font-size="20" font-family="Arial" fill="red">A</text>
  <!-- Text -->
  <text x="100" y="330" font-size="28" font-weight="bold" font-family="Verdana" fill="gold" stroke="black" stroke-width="1.5">ISRAEL-GAMES</text>
</svg>
