<?xml version="1.0" standalone="no"?>
<!DOCTYPE svg PUBLIC "-//W3C//DTD SVG 20010904//EN"
 "http://www.w3.org/TR/2001/REC-SVG-20010904/DTD/svg10.dtd">
<svg version="1.0" xmlns="http://www.w3.org/2000/svg"
 width="1024.000000pt" height="1024.000000pt" viewBox="0 0 1024.000000 1024.000000"
 preserveAspectRatio="xMidYMid meet">

<g transform="translate(0.000000,1024.000000) scale(0.100000,-0.100000)"
fill="#000000" stroke="none">
<path d="M5055 9471 c-149 -37 -220 -211 -143 -352 13 -23 29 -53 36 -66 12
-22 11 -34 -9 -96 -35 -110 -121 -271 -200 -374 -39 -51 -73 -93 -75 -93 -3 0
-43 37 -90 83 -80 79 -84 85 -74 111 29 79 -9 152 -86 163 -99 13 -167 -89
-119 -181 8 -15 15 -35 15 -43 0 -23 -29 -73 -43 -73 -22 0 -103 92 -160 181
l-56 87 15 47 c35 120 -39 253 -159 286 -93 25 -201 -27 -249 -120 -59 -113
-18 -255 90 -310 l37 -19 49 -191 c27 -105 46 -194 43 -197 -3 -3 -71 -39
-150 -79 -310 -155 -532 -313 -771 -545 -170 -166 -359 -398 -419 -517 l-16
-31 -73 30 c-118 48 -197 61 -353 61 -110 0 -157 -5 -218 -21 -291 -79 -534
-291 -644 -563 -47 -118 -66 -237 -60 -394 7 -193 46 -320 139 -459 54 -81
170 -194 241 -237 31 -18 57 -37 57 -40 0 -3 -25 -9 -57 -13 -68 -8 -188 -48
-264 -88 -274 -144 -445 -497 -399 -824 21 -154 75 -297 157 -421 49 -75 177
-200 266 -261 277 -191 620 -229 917 -103 73 31 160 84 198 121 13 12 24 20
26 19 1 -2 24 -38 51 -79 178 -275 419 -523 723 -743 161 -117 405 -253 565
-316 75 -30 130 -42 98 -22 -11 7 -11 10 2 12 15 4 14 9 -5 45 -18 38 -32 47
-132 94 -189 89 -373 199 -531 319 -155 116 -374 323 -464 438 -62 78 -231
324 -231 336 0 6 9 20 19 31 40 44 110 159 140 229 35 85 61 219 61 317 0 152
-56 317 -155 456 -53 73 -183 197 -279 265 -40 28 -63 50 -55 53 8 2 50 14 94
26 323 89 565 333 652 656 23 86 26 118 26 244 0 124 -4 159 -26 242 -41 153
-128 309 -242 429 -25 26 -45 51 -45 54 0 10 -51 49 -68 51 -27 4 -26 16 3 71
37 72 117 175 244 317 140 156 316 313 499 446 150 109 485 292 501 274 12
-13 41 -105 40 -129 -1 -24 48 -211 62 -237 7 -13 6 -23 -5 -34 -9 -8 -21 -33
-27 -54 -24 -81 24 -160 117 -196 40 -15 53 -16 107 -5 580 113 947 135 1372
81 147 -19 316 -47 425 -71 114 -25 212 17 245 106 18 45 18 47 -4 100 -21 51
-22 56 -7 107 44 151 77 268 88 310 l12 46 97 -48 c299 -151 582 -354 801
-577 429 -437 676 -909 785 -1503 20 -109 26 -181 30 -368 l6 -233 38 -19 c60
-31 67 -27 75 38 9 69 -11 398 -32 536 -92 609 -370 1163 -807 1605 -183 185
-313 292 -542 441 -92 59 -363 205 -415 222 -12 4 -5 38 36 198 l50 194 47 25
c57 32 92 77 107 143 36 148 -65 281 -215 281 -91 0 -159 -41 -199 -120 -23
-47 -30 -114 -16 -157 11 -36 10 -38 -53 -134 -81 -123 -157 -208 -180 -199
-24 9 -32 70 -14 98 23 36 30 93 17 134 -28 85 -149 102 -204 28 -20 -27 -23
-51 -12 -103 7 -35 5 -38 -81 -123 l-88 -88 -34 38 c-83 93 -171 251 -230 411
-36 97 -38 118 -12 131 58 32 82 192 40 277 -49 103 -153 152 -264 125z m124
-109 c63 -34 87 -114 57 -186 -12 -29 -52 -70 -77 -78 -26 -9 80 -326 146
-440 174 -295 374 -405 567 -310 121 60 270 220 366 395 23 42 46 78 51 81 5
3 0 24 -11 46 -24 47 -19 94 14 135 67 85 194 55 214 -51 13 -73 -49 -154
-117 -154 -19 0 -29 -5 -29 -15 0 -30 -223 -880 -234 -892 -8 -9 -34 -6 -110
12 -401 98 -969 126 -1422 70 -106 -13 -414 -70 -489 -90 -19 -6 -27 24 -130
454 l-110 460 -34 6 c-20 4 -49 21 -69 41 -33 33 -34 37 -30 89 5 65 32 99 89
116 105 32 190 -74 141 -176 l-20 -42 41 -82 c114 -224 314 -411 464 -436 201
-33 438 213 577 597 19 53 37 116 41 140 6 41 5 44 -25 56 -43 19 -74 82 -67
138 11 105 116 164 206 116z m218 -1467 c302 -25 574 -71 685 -118 49 -20 66
-55 48 -97 -7 -18 -22 -33 -37 -36 -13 -4 -108 10 -211 30 -274 53 -390 66
-657 73 -339 8 -544 -11 -908 -83 -163 -32 -180 -34 -201 -20 -34 22 -42 64
-18 95 28 38 77 58 214 86 202 40 296 52 623 78 107 9 291 6 462 -8z m-3141
-766 c70 -13 78 -17 66 -32 -5 -7 -21 -49 -36 -94 l-27 -82 -32 7 c-43 9 -192
9 -242 -1 l-40 -8 -34 91 c-18 50 -31 93 -29 96 3 2 34 11 69 19 79 17 225 19
305 4z m-391 -39 c-3 -5 -14 -10 -23 -9 -14 0 -13 2 3 9 27 11 27 11 20 0z
m-225 -114 c0 -3 -15 -14 -32 -26 l-33 -22 30 26 c31 27 35 29 35 22z m700
-66 c8 -5 11 -10 5 -10 -5 0 -17 5 -25 10 -8 5 -10 10 -5 10 6 0 17 -5 25 -10z
m479 -164 c48 -83 83 -176 68 -181 -45 -14 -186 -55 -191 -55 -3 0 -6 6 -6 13
0 24 -58 133 -104 194 l-46 63 67 71 68 71 56 -60 c31 -32 71 -85 88 -116z
m-1209 99 c35 -35 67 -61 70 -57 6 8 59 45 80 56 8 4 2 -3 -15 -15 -87 -66
-169 -168 -201 -251 -27 -70 -29 -70 -124 -39 -101 33 -101 34 -40 156 34 68
143 214 160 215 3 0 34 -29 70 -65z m800 35 c22 -11 40 -23 40 -25 0 -5 -79
32 -89 41 -11 10 14 2 49 -16z m-590 -5 c0 -2 -10 -9 -22 -15 -22 -11 -22 -10
-4 4 21 17 26 19 26 11z m661 -42 c13 -16 12 -17 -3 -4 -17 13 -22 21 -14 21
2 0 10 -8 17 -17z m-423 0 c-10 -2 -26 -2 -35 0 -10 3 -2 5 17 5 19 0 27 -2
18 -5z m130 0 c-10 -2 -28 -2 -40 0 -13 2 -5 4 17 4 22 1 32 -1 23 -4z m-195
-10 c-7 -2 -19 -2 -25 0 -7 3 -2 5 12 5 14 0 19 -2 13 -5z m250 0 c-7 -2 -19
-2 -25 0 -7 3 -2 5 12 5 14 0 19 -2 13 -5z m-303 -13 c-8 -5 -19 -10 -25 -10
-5 0 -3 5 5 10 8 5 20 10 25 10 6 0 3 -5 -5 -10z m-96 -46 c-108 -64 -169
-137 -220 -262 -13 -32 -24 -50 -24 -42 0 33 71 162 117 212 46 49 155 128
176 128 6 0 -16 -16 -49 -36z m512 20 c18 -14 18 -14 -6 -3 -31 14 -36 19 -24
19 6 0 19 -7 30 -16z m123 -89 c40 -40 111 -150 111 -169 0 -6 -15 16 -33 48
-31 58 -108 145 -157 180 -23 15 -22 15 8 -1 18 -9 50 -36 71 -58z m421 -160
c0 -8 -2 -15 -4 -15 -2 0 -6 7 -10 15 -3 8 -1 15 4 15 6 0 10 -7 10 -15z
m-1403 -77 c-3 -8 -6 -5 -6 6 -1 11 2 17 5 13 3 -3 4 -12 1 -19z m1122 -37 c1
-35 -5 -22 -12 24 -5 28 -4 34 3 20 5 -11 9 -31 9 -44z m98 22 c-3 -10 -5 -4
-5 12 0 17 2 24 5 18 2 -7 2 -21 0 -30z m-1410 5 c-3 -8 -6 -5 -6 6 -1 11 2
17 5 13 3 -3 4 -12 1 -19z m290 -40 c-3 -7 -5 -2 -5 12 0 14 2 19 5 13 2 -7 2
-19 0 -25z m-110 -25 c-3 -10 -5 -2 -5 17 0 19 2 27 5 18 2 -10 2 -26 0 -35z
m1430 -85 c-2 -24 -4 -7 -4 37 0 44 2 63 4 43 2 -21 2 -57 0 -80z m-1620 55
c-3 -10 -5 -2 -5 17 0 19 2 27 5 18 2 -10 2 -26 0 -35z m1430 -90 c-2 -27 -3
-5 -3 47 0 52 1 74 3 48 2 -27 2 -69 0 -95z m-100 50 c-2 -16 -4 -3 -4 27 0
30 2 43 4 28 2 -16 2 -40 0 -55z m-1040 20 c-3 -10 -5 -2 -5 17 0 19 2 27 5
18 2 -10 2 -26 0 -35z m-290 -25 c-3 -8 -6 -5 -6 6 -1 11 2 17 5 13 3 -3 4
-12 1 -19z m300 -65 c-3 -10 -5 -2 -5 17 0 19 2 27 5 18 2 -10 2 -26 0 -35z
m1020 -5 c-3 -7 -5 -2 -5 12 0 14 2 19 5 13 2 -7 2 -19 0 -25z m-1130 -15 c-3
-10 -5 -4 -5 12 0 17 2 24 5 18 2 -7 2 -21 0 -30z m-180 -15 c-3 -7 -5 -2 -5
12 0 14 2 19 5 13 2 -7 2 -19 0 -25z m1600 -10 c-3 -7 -5 -2 -5 12 0 14 2 19
5 13 2 -7 2 -19 0 -25z m-1228 -147 c66 -102 178 -182 303 -215 29 -8 43 -15
31 -15 -33 -1 -131 37 -188 74 -97 62 -202 204 -220 300 -3 17 5 2 18 -32 13
-34 39 -84 56 -112z m928 147 c-3 -8 -6 -5 -6 6 -1 11 2 17 5 13 3 -3 4 -12 1
-19z m-1095 -45 c40 -100 71 -155 113 -207 l48 -58 -72 -72 -72 -71 -42 48
c-23 27 -59 76 -79 110 -45 72 -103 217 -91 227 7 7 153 48 176 49 4 1 13 -11
19 -26z m1079 0 c-12 -20 -14 -14 -5 12 4 9 9 14 11 11 3 -2 0 -13 -6 -23z
m217 3 c46 -13 85 -26 88 -28 6 -7 -30 -106 -61 -168 -45 -89 -103 -165 -169
-221 -37 -32 -48 -39 -29 -18 l33 35 -65 64 c-38 37 -69 61 -73 55 -4 -5 -16
-17 -27 -25 -11 -8 8 17 41 55 73 85 116 153 140 223 10 28 23 52 29 52 5 0
47 -11 93 -24z m-1483 4 c3 -5 1 -10 -4 -10 -6 0 -11 5 -11 10 0 6 2 10 4 10
3 0 8 -4 11 -10z m1575 -6 c0 -8 -5 -12 -10 -9 -6 4 -8 11 -5 16 9 14 15 11
15 -7z m-354 -92 c-37 -61 -124 -151 -166 -171 l-25 -12 25 18 c59 42 127 115
160 171 19 33 36 59 38 57 3 -2 -12 -30 -32 -63z m-845 -199 c11 -15 11 -16
-1 -6 -11 10 -17 10 -29 0 -14 -11 -14 -10 -2 6 7 9 15 17 16 17 1 0 9 -8 16
-17z m609 -8 c-14 -8 -29 -14 -35 -14 -5 0 1 6 15 14 14 8 30 14 35 14 6 0 -1
-6 -15 -14z m-480 -82 c3 -4 -14 4 -38 17 -23 13 -50 32 -60 43 -9 10 8 2 38
-18 30 -20 57 -39 60 -42z m415 57 c-11 -5 -29 -8 -40 -8 -16 0 -15 2 5 8 34
11 60 11 35 0z m230 0 c-8 -13 -106 -70 -120 -70 -5 0 15 14 45 31 30 16 59
34 64 39 13 13 19 13 11 0z m-327 -17 c-21 -2 -55 -2 -75 0 -21 2 -4 4 37 4
41 0 58 -2 38 -4z m-43 -88 c55 0 114 4 130 8 l30 8 34 -97 c28 -77 31 -98 21
-104 -46 -29 -276 -38 -380 -17 -64 14 -63 8 -23 134 l27 82 30 -7 c17 -4 76
-7 131 -7z m-484 -42 c13 -16 12 -17 -3 -4 -10 7 -18 15 -18 17 0 8 8 3 21
-13z m979 3 c0 -2 -8 -10 -17 -17 -16 -13 -17 -12 -4 4 13 16 21 21 21 13z
m-60 -41 c0 -2 -10 -9 -22 -15 -22 -11 -22 -10 -4 4 21 17 26 19 26 11z m-773
-231 c-3 -3 -12 -4 -19 -1 -8 3 -5 6 6 6 11 1 17 -2 13 -5z m249 -34 c71 -17
137 -37 147 -45 18 -13 17 -17 -19 -82 -20 -37 -38 -69 -39 -71 -1 -1 -26 9
-56 22 -30 14 -96 33 -147 43 l-92 17 0 79 0 80 39 -7 c21 -3 97 -20 167 -36z
m-584 -72 c19 -29 42 -65 52 -79 l17 -27 -45 -26 c-25 -15 -72 -51 -105 -82
l-60 -55 -81 49 -81 50 69 74 c38 40 98 90 133 111 35 20 64 37 65 37 1 0 17
-24 36 -52z m316 -45 c-10 -2 -28 -2 -40 0 -13 2 -5 4 17 4 22 1 32 -1 23 -4z
m-85 -10 c-7 -2 -19 -2 -25 0 -7 3 -2 5 12 5 14 0 19 -2 13 -5z m-46 -9 c-3
-3 -12 -4 -19 -1 -8 3 -5 6 6 6 11 1 17 -2 13 -5z m694 -11 c13 -16 12 -17 -3
-4 -10 7 -18 15 -18 17 0 8 8 3 21 -13z m-771 -7 c0 -2 -7 -7 -16 -10 -8 -3
-12 -2 -9 4 6 10 25 14 25 6z m815 -26 c10 -11 16 -20 13 -20 -3 0 -13 9 -23
20 -10 11 -16 20 -13 20 3 0 13 -9 23 -20z m-547 -37 c-21 -2 -55 -2 -75 0
-21 2 -4 4 37 4 41 0 58 -2 38 -4z m363 -10 c13 -16 12 -17 -3 -4 -17 13 -22
21 -14 21 2 0 10 -8 17 -17z m-494 1 c-3 -3 -12 -4 -19 -1 -8 3 -5 6 6 6 11 1
17 -2 13 -5z m226 -1 c-7 -2 -19 -2 -25 0 -7 3 -2 5 12 5 14 0 19 -2 13 -5z
m44 -9 c-3 -3 -12 -4 -19 -1 -8 3 -5 6 6 6 11 1 17 -2 13 -5z m264 -21 c13
-16 12 -17 -3 -4 -10 7 -18 15 -18 17 0 8 8 3 21 -13z m-161 -18 c28 -14 50
-28 50 -30 0 -5 -99 42 -109 51 -12 11 15 1 59 -21z m-535 -10 c-51 -31 -132
-111 -153 -150 -8 -16 -21 -48 -28 -70 -7 -22 -13 -31 -13 -20 -1 36 47 123
92 169 46 45 114 95 132 95 6 0 -8 -11 -30 -24z m847 -120 c6 -11 9 -18 6 -15
-2 3 -33 37 -68 75 l-64 70 58 -55 c31 -30 62 -64 68 -75z m139 78 c13 -16 12
-17 -3 -4 -10 7 -18 15 -18 17 0 8 8 3 21 -13z m-340 -20 c13 -16 12 -17 -3
-4 -10 7 -18 15 -18 17 0 8 8 3 21 -13z m-871 -7 c0 -3 -4 -8 -10 -11 -5 -3
-10 -1 -10 4 0 6 5 11 10 11 6 0 10 -2 10 -4z m1266 -38 c54 -85 115 -260 95
-272 -4 -3 -49 -6 -101 -7 l-94 -2 -12 60 c-7 33 -26 87 -43 121 l-31 61 73
39 c39 22 75 40 79 41 4 0 20 -18 34 -41z m-259 -101 c17 -28 34 -63 38 -77 3
-14 -8 3 -25 37 -17 34 -54 88 -82 120 -50 56 -50 57 -7 15 25 -23 59 -66 76
-95z m-1250 -44 c-3 -10 -5 -2 -5 17 0 19 2 27 5 18 2 -10 2 -26 0 -35z m170
-20 c-3 -10 -5 -4 -5 12 0 17 2 24 5 18 2 -7 2 -21 0 -30z m100 -40 c-3 -10
-5 -4 -5 12 0 17 2 24 5 18 2 -7 2 -21 0 -30z m-97 -4 c0 -11 -4 -18 -10 -14
-5 3 -7 12 -3 20 7 21 13 19 13 -6z m1127 -21 c-3 -8 -6 -5 -6 6 -1 11 2 17 5
13 3 -3 4 -12 1 -19z m-1020 -35 c-3 -10 -5 -4 -5 12 0 17 2 24 5 18 2 -7 2
-21 0 -30z m-97 -29 c7 -31 33 -98 59 -149 27 -52 40 -89 32 -83 -12 7 -35 1
-83 -21 -38 -17 -68 -34 -68 -39 0 -5 18 -34 40 -66 22 -32 36 -55 31 -52 -21
13 -106 145 -137 211 -34 74 -64 176 -64 218 0 29 13 33 117 36 l62 1 11 -56z
m1127 9 c-3 -10 -5 -4 -5 12 0 17 2 24 5 18 2 -7 2 -21 0 -30z m-945 -162 c22
-32 25 -40 10 -27 -25 22 -92 150 -92 175 0 9 11 -11 25 -43 13 -33 39 -80 57
-105z m1049 17 l-11 -33 5 34 c3 18 6 52 7 75 l1 41 4 -42 c2 -22 -1 -56 -6
-75z m-94 65 c-3 -10 -5 -4 -5 12 0 17 2 24 5 18 2 -7 2 -21 0 -30z m-10 -55
c-3 -8 -6 -5 -6 6 -1 11 2 17 5 13 3 -3 4 -12 1 -19z m-1309 -125 c10 -19 10
-22 -2 -17 -8 3 -21 34 -30 69 -21 83 -19 95 3 25 10 -30 23 -65 29 -77z
m1263 18 c-35 -53 -94 -112 -133 -130 -22 -11 -22 -11 2 6 54 39 96 83 125
131 17 28 32 49 34 47 2 -3 -11 -27 -28 -54z m-751 -79 c8 -9 -3 -2 -25 15
-22 17 -53 46 -70 64 -26 30 53 -37 95 -79z m871 75 c-10 -9 -11 -8 -5 6 3 10
9 15 12 12 3 -3 0 -11 -7 -18z m91 -95 l56 -30 -28 -49 c-38 -66 -124 -150
-201 -195 -35 -21 -68 -38 -74 -38 -6 0 -31 37 -55 82 -40 75 -42 83 -26 92
74 44 127 90 166 142 l45 61 30 -17 c17 -10 55 -31 87 -48z m-1032 -59 c0 -8
-74 54 -100 83 -14 15 3 4 38 -26 34 -29 62 -55 62 -57z m1113 92 c-3 -9 -8
-14 -10 -11 -3 3 -2 9 2 15 9 16 15 13 8 -4z m-1524 -52 c12 -24 19 -43 16
-43 -5 0 -45 75 -45 86 0 11 6 2 29 -43z m21 7 c6 -11 8 -20 6 -20 -3 0 -10 9
-16 20 -6 11 -8 20 -6 20 3 0 10 -9 16 -20z m520 -6 c0 -2 -9 0 -20 6 -11 6
-20 13 -20 16 0 2 9 0 20 -6 11 -6 20 -13 20 -16z m970 16 c0 -5 -5 -10 -11
-10 -5 0 -7 5 -4 10 3 6 8 10 11 10 2 0 4 -4 4 -10z m-935 -38 c-3 -3 -11 0
-18 7 -9 10 -8 11 6 5 10 -3 15 -9 12 -12z m-430 -133 c44 -49 40 -45 -17 13
-43 44 -83 89 -89 101 -6 12 2 6 17 -13 16 -19 55 -65 89 -101z m475 121 c8
-5 11 -10 5 -10 -5 0 -17 5 -25 10 -8 5 -10 10 -5 10 6 0 17 -5 25 -10z m420
-10 c-19 -11 -42 -19 -50 -19 -8 0 3 8 25 18 52 25 70 26 25 1z m-985 -52 c16
-24 22 -38 14 -31 -15 12 -53 73 -46 73 2 0 17 -19 32 -42z m642 36 c-3 -3
-12 -4 -19 -1 -8 3 -5 6 6 6 11 1 17 -2 13 -5z m40 -10 c-3 -3 -12 -4 -19 -1
-8 3 -5 6 6 6 11 1 17 -2 13 -5z m230 0 c-3 -3 -12 -4 -19 -1 -8 3 -5 6 6 6
11 1 17 -2 13 -5z m-270 -91 c43 -9 80 -18 82 -19 1 -2 -4 -24 -12 -51 -9 -26
-21 -67 -27 -91 l-11 -42 -42 6 c-82 13 -275 82 -306 110 -2 2 12 27 31 56 19
29 42 67 51 84 l16 31 69 -34 c39 -18 105 -41 149 -50z m111 80 c-10 -2 -28
-2 -40 0 -13 2 -5 4 17 4 22 1 32 -1 23 -4z m105 0 c-13 -2 -35 -2 -50 0 -16
2 -5 4 22 4 28 0 40 -2 28 -4z m-604 -107 c35 -25 59 -46 55 -46 -14 0 -136
95 -164 127 -23 26 -23 26 10 -3 19 -17 64 -52 99 -78z m-154 -26 c38 -38 67
-70 64 -70 -2 0 -36 32 -74 70 -38 39 -67 70 -64 70 2 0 36 -31 74 -70z m840
40 c-11 -5 -31 -8 -45 -8 -23 0 -22 1 5 8 42 11 65 11 40 0z m-80 -10 c-3 -5
-23 -9 -43 -9 l-37 2 40 7 c22 4 41 8 43 9 2 0 0 -3 -3 -9z m-674 -57 c13 -16
12 -17 -3 -4 -17 13 -22 21 -14 21 2 0 10 -8 17 -17z m177 -97 c62 -31 135
-54 218 -69 l69 -13 2 -37 c1 -43 -1 -44 -97 -22 -88 21 -174 55 -278 111 -7
4 19 54 28 54 6 0 32 -11 58 -24z m659 8 c-3 -3 -12 -4 -19 -1 -8 3 -5 6 6 6
11 1 17 -2 13 -5z m-40 -10 c-3 -3 -12 -4 -19 -1 -8 3 -5 6 6 6 11 1 17 -2 13
-5z m-69 -11 c-10 -2 -26 -2 -35 0 -10 3 -2 5 17 5 19 0 27 -2 18 -5z m252
-13 c-8 -5 -19 -10 -25 -10 -5 0 -3 5 5 10 8 5 20 10 25 10 6 0 3 -5 -5 -10z
m-50 -20 c-8 -5 -19 -10 -25 -10 -5 0 -3 5 5 10 8 5 20 10 25 10 6 0 3 -5 -5
-10z m-157 -47 c-7 -2 -19 -2 -25 0 -7 3 -2 5 12 5 14 0 19 -2 13 -5z m-65
-10 c-10 -2 -26 -2 -35 0 -10 3 -2 5 17 5 19 0 27 -2 18 -5z m-130 -50 c-10
-2 -26 -2 -35 0 -10 3 -2 5 17 5 19 0 27 -2 18 -5z m49 1 c-3 -3 -12 -4 -19
-1 -8 3 -5 6 6 6 11 1 17 -2 13 -5z"/>
<path d="M5130 7160 c0 -104 0 -193 -1 -197 0 -5 5 -11 13 -15 16 -7 259 -30
265 -24 7 6 65 397 60 402 -5 5 -232 23 -294 24 l-43 0 0 -190z"/>
<path d="M4640 7293 c-76 -16 -219 -59 -239 -72 -12 -7 -2 -38 52 -168 36 -87
70 -170 76 -186 10 -27 11 -27 48 -12 21 8 83 26 137 40 55 14 100 26 101 28
3 4 -100 376 -105 380 -3 2 -34 -2 -70 -10z"/>
<path d="M5864 7194 c-4 -11 -38 -91 -76 -179 -38 -88 -72 -165 -74 -171 -3
-6 5 -14 18 -18 13 -3 68 -30 123 -61 54 -30 102 -55 105 -55 9 0 200 315 200
328 0 14 -100 74 -187 113 -37 17 -76 38 -85 46 -16 14 -18 14 -24 -3z"/>
<path d="M3960 6978 c-45 -34 -98 -78 -205 -170 -5 -5 51 -68 140 -158 l150
-150 45 43 c25 24 61 55 80 69 19 15 48 38 64 51 l30 24 -112 155 c-62 86
-118 161 -125 166 -9 8 -27 0 -67 -30z"/>
<path d="M3779 6933 c-13 -16 -12 -17 4 -4 9 7 17 15 17 17 0 8 -8 3 -21 -13z"/>
<path d="M3644 6798 l-19 -23 23 19 c21 18 27 26 19 26 -2 0 -12 -10 -23 -22z"/>
<path d="M6367 6624 c-134 -114 -147 -128 -135 -144 49 -69 161 -210 167 -210
5 0 306 222 320 235 5 6 -188 245 -197 245 -4 0 -74 -57 -155 -126z"/>
<path d="M6080 6496 c0 -2 8 -10 18 -17 15 -13 16 -12 3 4 -13 16 -21 21 -21
13z"/>
<path d="M3471 6447 c-43 -71 -132 -259 -128 -270 6 -16 331 -177 357 -177 7
0 134 250 128 254 -7 6 -242 163 -288 193 l-49 32 -20 -32z"/>
<path d="M6150 6425 c19 -19 36 -35 39 -35 3 0 -10 16 -29 35 -19 19 -36 35
-39 35 -3 0 10 -16 29 -35z"/>
<path d="M4069 6413 c-13 -16 -12 -17 4 -4 16 13 21 21 13 21 -2 0 -10 -8 -17
-17z"/>
<path d="M5898 6403 c7 -3 16 -2 19 1 4 3 -2 6 -13 5 -11 0 -14 -3 -6 -6z"/>
<path d="M5728 6383 c7 -3 16 -2 19 1 4 3 -2 6 -13 5 -11 0 -14 -3 -6 -6z"/>
<path d="M5678 6373 c7 -3 16 -2 19 1 4 3 -2 6 -13 5 -11 0 -14 -3 -6 -6z"/>
<path d="M5638 6363 c7 -3 16 -2 19 1 4 3 -2 6 -13 5 -11 0 -14 -3 -6 -6z"/>
<path d="M5588 6353 c7 -3 16 -2 19 1 4 3 -2 6 -13 5 -11 0 -14 -3 -6 -6z"/>
<path d="M4458 6343 c7 -3 16 -2 19 1 4 3 -2 6 -13 5 -11 0 -14 -3 -6 -6z"/>
<path d="M5548 6343 c7 -3 16 -2 19 1 4 3 -2 6 -13 5 -11 0 -14 -3 -6 -6z"/>
<path d="M4332 6285 c-28 -20 -52 -38 -52 -40 0 -3 25 11 55 31 48 32 62 44
52 44 -1 0 -26 -16 -55 -35z"/>
<path d="M4610 6306 c0 -2 8 -10 18 -17 15 -13 16 -12 3 4 -13 16 -21 21 -21
13z"/>
<path d="M5378 6303 c7 -3 16 -2 19 1 4 3 -2 6 -13 5 -11 0 -14 -3 -6 -6z"/>
<path d="M5338 6293 c7 -3 16 -2 19 1 4 3 -2 6 -13 5 -11 0 -14 -3 -6 -6z"/>
<path d="M5298 6283 c7 -3 16 -2 19 1 4 3 -2 6 -13 5 -11 0 -14 -3 -6 -6z"/>
<path d="M5258 6273 c7 -3 16 -2 19 1 4 3 -2 6 -13 5 -11 0 -14 -3 -6 -6z"/>
<path d="M4659 6257 c6 -8 7 -18 3 -22 -4 -5 -1 -5 6 -1 10 6 10 11 1 22 -6 8
-14 14 -16 14 -3 0 0 -6 6 -13z"/>
<path d="M5218 6263 c7 -3 16 -2 19 1 4 3 -2 6 -13 5 -11 0 -14 -3 -6 -6z"/>
<path d="M5468 6233 c6 -2 18 -2 25 0 6 3 1 5 -13 5 -14 0 -19 -2 -12 -5z"/>
<path d="M5568 6233 c12 -2 32 -2 45 0 12 2 2 4 -23 4 -25 0 -35 -2 -22 -4z"/>
<path d="M5058 6223 c7 -3 16 -2 19 1 4 3 -2 6 -13 5 -11 0 -14 -3 -6 -6z"/>
<path d="M5418 6223 c7 -3 16 -2 19 1 4 3 -2 6 -13 5 -11 0 -14 -3 -6 -6z"/>
<path d="M5678 6223 c6 -2 18 -2 25 0 6 3 1 5 -13 5 -14 0 -19 -2 -12 -5z"/>
<path d="M4214 6198 l-19 -23 23 19 c12 11 22 21 22 23 0 8 -8 2 -26 -19z"/>
<path d="M4588 6213 c7 -3 16 -2 19 1 4 3 -2 6 -13 5 -11 0 -14 -3 -6 -6z"/>
<path d="M5778 6213 c7 -3 16 -2 19 1 4 3 -2 6 -13 5 -11 0 -14 -3 -6 -6z"/>
<path d="M5345 6200 c-3 -6 1 -7 9 -4 18 7 21 14 7 14 -6 0 -13 -4 -16 -10z"/>
<path d="M5848 6203 c6 -2 18 -2 25 0 6 3 1 5 -13 5 -14 0 -19 -2 -12 -5z"/>
<path d="M4938 6193 c7 -3 16 -2 19 1 4 3 -2 6 -13 5 -11 0 -14 -3 -6 -6z"/>
<path d="M5928 6193 c6 -2 18 -2 25 0 6 3 1 5 -13 5 -14 0 -19 -2 -12 -5z"/>
<path d="M4348 6163 c7 -3 16 -2 19 1 4 3 -2 6 -13 5 -11 0 -14 -3 -6 -6z"/>
<path d="M4818 6163 c7 -3 16 -2 19 1 4 3 -2 6 -13 5 -11 0 -14 -3 -6 -6z"/>
<path d="M5264 6138 l-29 -33 33 29 c30 28 37 36 29 36 -2 0 -16 -15 -33 -32z"/>
<path d="M4268 6143 c7 -3 16 -2 19 1 4 3 -2 6 -13 5 -11 0 -14 -3 -6 -6z"/>
<path d="M4698 6133 c7 -3 16 -2 19 1 4 3 -2 6 -13 5 -11 0 -14 -3 -6 -6z"/>
<path d="M5468 6123 c7 -3 16 -2 19 1 4 3 -2 6 -13 5 -11 0 -14 -3 -6 -6z"/>
<path d="M5563 6123 c9 -2 25 -2 35 0 9 3 1 5 -18 5 -19 0 -27 -2 -17 -5z"/>
<path d="M6852 6103 c-34 -15 -59 -30 -55 -34 10 -10 153 -33 159 -26 10 9
-17 87 -29 86 -7 0 -40 -12 -75 -26z"/>
<path d="M4608 6113 c7 -3 16 -2 19 1 4 3 -2 6 -13 5 -11 0 -14 -3 -6 -6z"/>
<path d="M5648 6113 c6 -2 18 -2 25 0 6 3 1 5 -13 5 -14 0 -19 -2 -12 -5z"/>
<path d="M4568 6103 c7 -3 16 -2 19 1 4 3 -2 6 -13 5 -11 0 -14 -3 -6 -6z"/>
<path d="M5718 6103 c6 -2 18 -2 25 0 6 3 1 5 -13 5 -14 0 -19 -2 -12 -5z"/>
<path d="M5220 6079 c-7 -11 -10 -23 -7 -25 2 -2 9 7 15 21 14 30 7 33 -8 4z"/>
<path d="M5808 6093 c7 -3 16 -2 19 1 4 3 -2 6 -13 5 -11 0 -14 -3 -6 -6z"/>
<path d="M5339 6053 c-13 -16 -12 -17 4 -4 9 7 17 15 17 17 0 8 -8 3 -21 -13z"/>
<path d="M6038 6063 c6 -2 18 -2 25 0 6 3 1 5 -13 5 -14 0 -19 -2 -12 -5z"/>
<path d="M6178 6043 c7 -3 16 -2 19 1 4 3 -2 6 -13 5 -11 0 -14 -3 -6 -6z"/>
<path d="M4278 6033 c7 -3 16 -2 19 1 4 3 -2 6 -13 5 -11 0 -14 -3 -6 -6z"/>
<path d="M5202 6020 c0 -14 2 -19 5 -12 2 6 2 18 0 25 -3 6 -5 1 -5 -13z"/>
<path d="M6248 6033 c7 -3 16 -2 19 1 4 3 -2 6 -13 5 -11 0 -14 -3 -6 -6z"/>
<path d="M4238 6023 c7 -3 16 -2 19 1 4 3 -2 6 -13 5 -11 0 -14 -3 -6 -6z"/>
<path d="M6318 6023 c7 -3 16 -2 19 1 4 3 -2 6 -13 5 -11 0 -14 -3 -6 -6z"/>
<path d="M6388 6013 c7 -3 16 -2 19 1 4 3 -2 6 -13 5 -11 0 -14 -3 -6 -6z"/>
<path d="M6448 6003 c7 -3 16 -2 19 1 4 3 -2 6 -13 5 -11 0 -14 -3 -6 -6z"/>
<path d="M5191 5974 c0 -11 3 -14 6 -6 3 7 2 16 -1 19 -3 4 -6 -2 -5 -13z"/>
<path d="M5301 5974 c0 -11 3 -14 6 -6 3 7 2 16 -1 19 -3 4 -6 -2 -5 -13z"/>
<path d="M6620 5976 c0 -2 7 -7 16 -10 8 -3 12 -2 9 4 -6 10 -25 14 -25 6z"/>
<path d="M3929 5913 l-24 -28 28 24 c25 23 32 31 24 31 -2 0 -14 -12 -28 -27z"/>
<path d="M5182 5890 c0 -19 2 -27 5 -17 2 9 2 25 0 35 -3 9 -5 1 -5 -18z"/>
<path d="M5638 5903 c6 -2 18 -2 25 0 6 3 1 5 -13 5 -14 0 -19 -2 -12 -5z"/>
<path d="M7168 5903 c6 -2 18 -2 25 0 6 3 1 5 -13 5 -14 0 -19 -2 -12 -5z"/>
<path d="M5281 5874 c0 -11 3 -14 6 -6 3 7 2 16 -1 19 -3 4 -6 -2 -5 -13z"/>
<path d="M3895 5869 c-4 -6 -5 -12 -2 -15 2 -3 7 2 10 11 7 17 1 20 -8 4z"/>
<path d="M6661 5835 c-17 -20 -31 -39 -31 -42 0 -4 3 -3 8 3 4 5 20 24 36 42
17 17 27 32 24 32 -3 0 -20 -16 -37 -35z"/>
<path d="M5556 5845 c-9 -26 -7 -32 5 -12 6 10 9 21 6 23 -2 3 -7 -2 -11 -11z"/>
<path d="M3679 5823 c-13 -16 -12 -17 4 -4 9 7 17 15 17 17 0 8 -8 3 -21 -13z"/>
<path d="M5172 5820 c0 -14 2 -19 5 -12 2 6 2 18 0 25 -3 6 -5 1 -5 -13z"/>
<path d="M5272 5795 c0 -16 2 -22 5 -12 2 9 2 23 0 30 -3 6 -5 -1 -5 -18z"/>
<path d="M6516 5805 c-9 -26 -7 -32 5 -12 6 10 9 21 6 23 -2 3 -7 -2 -11 -11z"/>
<path d="M3872 5790 c0 -14 2 -19 5 -12 2 6 2 18 0 25 -3 6 -5 1 -5 -13z"/>
<path d="M3195 5777 c-10 -48 -23 -132 -20 -135 4 -4 175 91 175 97 0 3 -34
18 -75 33 l-75 26 -5 -21z"/>
<path d="M3585 5769 c-27 -17 -54 -36 -60 -42 -11 -11 58 28 96 55 40 28 17
20 -36 -13z"/>
<path d="M3773 5760 c0 -25 2 -35 4 -22 2 12 2 32 0 45 -2 12 -4 2 -4 -23z"/>
<path d="M4193 5789 l-31 -9 -2 -192 c-1 -195 -4 -232 -24 -257 -9 -11 0 -12
54 -6 36 4 67 9 69 11 3 2 -5 18 -18 35 -15 20 -21 41 -19 62 3 30 6 32 57 40
65 11 75 3 76 -58 0 -35 3 -44 15 -40 8 2 36 9 63 16 52 13 54 15 33 38 -8 9
-60 95 -114 191 -55 96 -106 176 -113 177 -8 1 -28 -3 -46 -8z m57 -133 c0 -6
13 -33 30 -59 20 -32 26 -49 17 -51 -6 -2 -27 -8 -46 -14 l-34 -11 7 52 c3 29
6 65 6 80 0 16 4 26 10 22 6 -3 10 -12 10 -19z"/>
<path d="M6607 5745 c-24 -50 -20 -58 4 -12 11 22 19 41 17 43 -3 2 -12 -12
-21 -31z"/>
<path d="M6495 5759 c-4 -6 -5 -12 -2 -15 2 -3 7 2 10 11 7 17 1 20 -8 4z"/>
<path d="M5162 5740 c0 -14 2 -19 5 -12 2 6 2 18 0 25 -3 6 -5 1 -5 -13z"/>
<path d="M5692 5735 c0 -16 2 -22 5 -12 2 9 2 23 0 30 -3 6 -5 -1 -5 -18z"/>
<path d="M7180 5740 c8 -5 20 -10 25 -10 6 0 3 5 -5 10 -8 5 -19 10 -25 10 -5
0 -3 -5 5 -10z"/>
<path d="M3881 5724 c0 -11 3 -14 6 -6 3 7 2 16 -1 19 -3 4 -6 -2 -5 -13z"/>
<path d="M3781 5684 c0 -11 3 -14 6 -6 3 7 2 16 -1 19 -3 4 -6 -2 -5 -13z"/>
<path d="M3892 5675 c0 -16 2 -22 5 -12 2 9 2 23 0 30 -3 6 -5 -1 -5 -18z"/>
<path d="M6575 5679 c-4 -6 -5 -12 -2 -15 2 -3 7 2 10 11 7 17 1 20 -8 4z"/>
<path d="M5151 5654 c0 -11 3 -14 6 -6 3 7 2 16 -1 19 -3 4 -6 -2 -5 -13z"/>
<path d="M5252 5645 c0 -16 2 -22 5 -12 2 9 2 23 0 30 -3 6 -5 -1 -5 -18z"/>
<path d="M5702 5650 c0 -14 2 -19 5 -12 2 6 2 18 0 25 -3 6 -5 1 -5 -13z"/>
<path d="M7367 5659 c7 -7 15 -10 18 -7 3 3 -2 9 -12 12 -14 6 -15 5 -6 -5z"/>
<path d="M3394 5644 c-18 -14 -18 -15 4 -4 12 6 22 13 22 15 0 8 -5 6 -26 -11z"/>
<path d="M3791 5634 c0 -11 3 -14 6 -6 3 7 2 16 -1 19 -3 4 -6 -2 -5 -13z"/>
<path d="M3901 5624 c0 -11 3 -14 6 -6 3 7 2 16 -1 19 -3 4 -6 -2 -5 -13z"/>
<path d="M7420 5636 c0 -2 7 -7 16 -10 8 -3 12 -2 9 4 -6 10 -25 14 -25 6z"/>
<path d="M6842 5588 c-45 -49 -117 -137 -181 -221 -24 -31 -54 -60 -67 -63
-27 -7 -32 -24 -7 -24 9 0 24 -6 32 -14 9 -7 28 -16 44 -20 23 -5 27 -3 27 15
0 24 38 92 49 87 101 -51 100 -50 94 -82 -3 -17 -17 -41 -32 -53 -17 -15 -21
-23 -11 -23 8 0 35 -14 60 -30 25 -16 48 -30 52 -30 4 0 5 19 2 43 -5 36 41
341 62 408 3 12 -7 21 -36 33 -22 9 -42 16 -45 16 -2 0 -22 -19 -43 -42z m23
-142 c-9 -42 -19 -76 -22 -76 -9 0 -63 31 -63 36 0 10 93 124 97 120 3 -2 -3
-39 -12 -80z"/>
<path d="M6426 5605 c-9 -26 -7 -32 5 -12 6 10 9 21 6 23 -2 3 -7 -2 -11 -11z"/>
<path d="M3295 5584 c-51 -34 -69 -52 -29 -29 35 20 82 54 74 55 -3 0 -23 -12
-45 -26z"/>
<path d="M5142 5580 c0 -14 2 -19 5 -12 2 6 2 18 0 25 -3 6 -5 1 -5 -13z"/>
<path d="M7520 5590 c8 -5 20 -10 25 -10 6 0 3 5 -5 10 -8 5 -19 10 -25 10 -5
0 -3 -5 5 -10z"/>
<path d="M3911 5574 c0 -11 3 -14 6 -6 3 7 2 16 -1 19 -3 4 -6 -2 -5 -13z"/>
<path d="M5712 5565 c0 -16 2 -22 5 -12 2 9 2 23 0 30 -3 6 -5 -1 -5 -18z"/>
<path d="M5242 5550 c0 -19 2 -27 5 -17 2 9 2 25 0 35 -3 9 -5 1 -5 -18z"/>
<path d="M6525 5569 c-4 -6 -5 -12 -2 -15 2 -3 7 2 10 11 7 17 1 20 -8 4z"/>
<path d="M3811 5554 c0 -11 3 -14 6 -6 3 7 2 16 -1 19 -3 4 -6 -2 -5 -13z"/>
<path d="M7600 5555 c14 -8 30 -14 35 -14 6 0 -1 6 -15 14 -14 8 -29 14 -35
14 -5 0 1 -6 15 -14z"/>
<path d="M3921 5534 c0 -11 3 -14 6 -6 3 7 2 16 -1 19 -3 4 -6 -2 -5 -13z"/>
<path d="M6506 5525 c-9 -26 -7 -32 5 -12 6 10 9 21 6 23 -2 3 -7 -2 -11 -11z"/>
<path d="M3822 5510 c0 -14 2 -19 5 -12 2 6 2 18 0 25 -3 6 -5 1 -5 -13z"/>
<path d="M5132 5500 c0 -14 2 -19 5 -12 2 6 2 18 0 25 -3 6 -5 1 -5 -13z"/>
<path d="M3931 5484 c0 -11 3 -14 6 -6 3 7 2 16 -1 19 -3 4 -6 -2 -5 -13z"/>
<path d="M5448 5473 c7 -3 16 -2 19 1 4 3 -2 6 -13 5 -11 0 -14 -3 -6 -6z"/>
<path d="M7790 5470 c8 -5 20 -10 25 -10 6 0 3 5 -5 10 -8 5 -19 10 -25 10 -5
0 -3 -5 5 -10z"/>
<path d="M5508 5463 c7 -3 16 -2 19 1 4 3 -2 6 -13 5 -11 0 -14 -3 -6 -6z"/>
<path d="M3941 5434 c0 -11 3 -14 6 -6 3 7 2 16 -1 19 -3 4 -6 -2 -5 -13z"/>
<path d="M5122 5430 c0 -14 2 -19 5 -12 2 6 2 18 0 25 -3 6 -5 1 -5 -13z"/>
<path d="M6346 5425 c-9 -26 -7 -32 5 -12 6 10 9 21 6 23 -2 3 -7 -2 -11 -11z"/>
<path d="M3841 5414 c0 -11 3 -14 6 -6 3 7 2 16 -1 19 -3 4 -6 -2 -5 -13z"/>
<path d="M5221 5414 c0 -11 3 -14 6 -6 3 7 2 16 -1 19 -3 4 -6 -2 -5 -13z"/>
<path d="M6456 5415 c-9 -26 -7 -32 5 -12 6 10 9 21 6 23 -2 3 -7 -2 -11 -11z"/>
<path d="M3951 5394 c0 -11 3 -14 6 -6 3 7 2 16 -1 19 -3 4 -6 -2 -5 -13z"/>
<path d="M3851 5374 c0 -11 3 -14 6 -6 3 7 2 16 -1 19 -3 4 -6 -2 -5 -13z"/>
<path d="M2950 5359 c-22 -18 -22 -19 -3 -10 12 6 25 16 28 21 9 15 3 12 -25
-11z"/>
<path d="M8030 5365 c14 -8 30 -14 35 -14 6 0 -1 6 -15 14 -14 8 -29 14 -35
14 -5 0 1 -6 15 -14z"/>
<path d="M5112 5350 c0 -14 2 -19 5 -12 2 6 2 18 0 25 -3 6 -5 1 -5 -13z"/>
<path d="M6307 5335 c-24 -50 -20 -58 4 -12 11 22 19 41 17 43 -3 2 -12 -12
-21 -31z"/>
<path d="M6426 5345 c-9 -26 -7 -32 5 -12 6 10 9 21 6 23 -2 3 -7 -2 -11 -11z"/>
<path d="M3861 5334 c0 -11 3 -14 6 -6 3 7 2 16 -1 19 -3 4 -6 -2 -5 -13z"/>
<path d="M5211 5334 c0 -11 3 -14 6 -6 3 7 2 16 -1 19 -3 4 -6 -2 -5 -13z"/>
<path d="M3972 5310 c0 -14 2 -19 5 -12 2 6 2 18 0 25 -3 6 -5 1 -5 -13z"/>
<path d="M8130 5320 c8 -5 20 -10 25 -10 6 0 3 5 -5 10 -8 5 -19 10 -25 10 -5
0 -3 -5 5 -10z"/>
<path d="M2833 5274 l-48 -46 45 37 c60 51 65 55 58 55 -3 0 -28 -21 -55 -46z"/>
<path d="M3871 5284 c0 -11 3 -14 6 -6 3 7 2 16 -1 19 -3 4 -6 -2 -5 -13z"/>
<path d="M5102 5260 c0 -14 2 -19 5 -12 2 6 2 18 0 25 -3 6 -5 1 -5 -13z"/>
<path d="M5202 5260 c0 -14 2 -19 5 -12 2 6 2 18 0 25 -3 6 -5 1 -5 -13z"/>
<path d="M3981 5254 c0 -11 3 -14 6 -6 3 7 2 16 -1 19 -3 4 -6 -2 -5 -13z"/>
<path d="M4317 5248 c-64 -105 -108 -190 -105 -205 3 -17 195 -170 202 -162 2
2 31 58 64 125 l60 121 -89 67 c-50 37 -96 69 -104 72 -7 3 -20 -5 -28 -18z"/>
<path d="M6386 5255 c-9 -26 -7 -32 5 -12 6 10 9 21 6 23 -2 3 -7 -2 -11 -11z"/>
<path d="M3881 5244 c0 -11 3 -14 6 -6 3 7 2 16 -1 19 -3 4 -6 -2 -5 -13z"/>
<path d="M6257 5225 c-24 -50 -20 -58 4 -12 11 22 19 41 17 43 -3 2 -12 -12
-21 -31z"/>
<path d="M3892 5200 c0 -14 2 -19 5 -12 2 6 2 18 0 25 -3 6 -5 1 -5 -13z"/>
<path d="M5091 5194 c0 -11 3 -14 6 -6 3 7 2 16 -1 19 -3 4 -6 -2 -5 -13z"/>
<path d="M5192 5190 c0 -14 2 -19 5 -12 2 6 2 18 0 25 -3 6 -5 1 -5 -13z"/>
<path d="M6356 5185 c-9 -26 -7 -32 5 -12 6 10 9 21 6 23 -2 3 -7 -2 -11 -11z"/>
<path d="M4001 5174 c0 -11 3 -14 6 -6 3 7 2 16 -1 19 -3 4 -6 -2 -5 -13z"/>
<path d="M2762 5145 c0 -16 2 -22 5 -12 2 9 2 23 0 30 -3 6 -5 -1 -5 -18z"/>
<path d="M3901 5154 c0 -11 3 -14 6 -6 3 7 2 16 -1 19 -3 4 -6 -2 -5 -13z"/>
<path d="M3210 5125 c19 -19 36 -35 39 -35 3 0 -10 16 -29 35 -19 19 -36 35
-39 35 -3 0 10 -16 29 -35z"/>
<path d="M6212 5125 c-17 -37 -14 -45 4 -12 9 16 14 31 11 33 -2 2 -9 -7 -15
-21z"/>
<path d="M4011 5124 c0 -11 3 -14 6 -6 3 7 2 16 -1 19 -3 4 -6 -2 -5 -13z"/>
<path d="M5080 5127 c0 -8 -11 -28 -24 -44 -13 -15 -85 -131 -161 -258 -76
-126 -148 -246 -161 -265 -41 -59 -35 -71 75 -149 123 -87 168 -114 174 -104
2 4 7 33 11 63 11 102 66 544 81 655 8 60 12 111 10 114 -3 2 -5 -3 -5 -12z"/>
<path d="M3911 5114 c0 -11 3 -14 6 -6 3 7 2 16 -1 19 -3 4 -6 -2 -5 -13z"/>
<path d="M5181 5094 c0 -11 3 -14 6 -6 3 7 2 16 -1 19 -3 4 -6 -2 -5 -13z"/>
<path d="M2771 5084 c0 -11 3 -14 6 -6 3 7 2 16 -1 19 -3 4 -6 -2 -5 -13z"/>
<path d="M4021 5084 c0 -11 3 -14 6 -6 3 7 2 16 -1 19 -3 4 -6 -2 -5 -13z"/>
<path d="M6306 5075 c-9 -26 -7 -32 5 -12 6 10 9 21 6 23 -2 3 -7 -2 -11 -11z"/>
<path d="M3921 5064 c0 -11 3 -14 6 -6 3 7 2 16 -1 19 -3 4 -6 -2 -5 -13z"/>
<path d="M8511 5064 c0 -11 3 -14 6 -6 3 7 2 16 -1 19 -3 4 -6 -2 -5 -13z"/>
<path d="M5370 5066 c0 -2 8 -10 18 -17 15 -13 16 -12 3 4 -13 16 -21 21 -21
13z"/>
<path d="M2780 5055 c0 -5 5 -17 10 -25 5 -8 10 -10 10 -5 0 6 -5 17 -10 25
-5 8 -10 11 -10 5z"/>
<path d="M4031 5034 c0 -11 3 -14 6 -6 3 7 2 16 -1 19 -3 4 -6 -2 -5 -13z"/>
<path d="M3931 5024 c0 -11 3 -14 6 -6 3 7 2 16 -1 19 -3 4 -6 -2 -5 -13z"/>
<path d="M5172 5010 c0 -19 2 -27 5 -17 2 9 2 25 0 35 -3 9 -5 1 -5 -18z"/>
<path d="M5540 5021 c0 -25 6 -27 13 -6 4 8 2 17 -3 20 -6 4 -10 -3 -10 -14z"/>
<path d="M8511 5014 c0 -11 3 -14 6 -6 3 7 2 16 -1 19 -3 4 -6 -2 -5 -13z"/>
<path d="M2800 5004 c0 -6 7 -19 16 -30 14 -18 14 -18 3 6 -14 31 -19 36 -19
24z"/>
<path d="M4041 4994 c0 -11 3 -14 6 -6 3 7 2 16 -1 19 -3 4 -6 -2 -5 -13z"/>
<path d="M3942 4980 c0 -14 2 -19 5 -12 2 6 2 18 0 25 -3 6 -5 1 -5 -13z"/>
<path d="M6141 4973 c-10 -26 -10 -27 4 -9 8 11 15 23 15 28 0 15 -7 8 -19
-19z"/>
<path d="M6456 4965 c-3 -9 -6 -24 -5 -33 0 -9 5 -4 10 12 9 32 6 48 -5 21z"/>
<path d="M4051 4944 c0 -11 3 -14 6 -6 3 7 2 16 -1 19 -3 4 -6 -2 -5 -13z"/>
<path d="M5162 4935 c0 -16 2 -22 5 -12 2 9 2 23 0 30 -3 6 -5 -1 -5 -18z"/>
<path d="M4061 4904 c0 -11 3 -14 6 -6 3 7 2 16 -1 19 -3 4 -6 -2 -5 -13z"/>
<path d="M3961 4894 c0 -11 3 -14 6 -6 3 7 2 16 -1 19 -3 4 -6 -2 -5 -13z"/>
<path d="M2875 4860 c9 -16 18 -30 21 -30 2 0 -2 14 -11 30 -9 17 -18 30 -21
30 -2 0 2 -13 11 -30z"/>
<path d="M4072 4860 c0 -14 2 -19 5 -12 2 6 2 18 0 25 -3 6 -5 1 -5 -13z"/>
<path d="M5152 4860 c0 -14 2 -19 5 -12 2 6 2 18 0 25 -3 6 -5 1 -5 -13z"/>
<path d="M6015 4870 c-3 -6 1 -7 9 -4 18 7 21 14 7 14 -6 0 -13 -4 -16 -10z"/>
<path d="M3971 4854 c0 -11 3 -14 6 -6 3 7 2 16 -1 19 -3 4 -6 -2 -5 -13z"/>
<path d="M5935 4830 c-3 -6 1 -7 9 -4 18 7 21 14 7 14 -6 0 -13 -4 -16 -10z"/>
<path d="M3981 4814 c0 -11 3 -14 6 -6 3 7 2 16 -1 19 -3 4 -6 -2 -5 -13z"/>
<path d="M4082 4810 c0 -14 2 -19 5 -12 2 6 2 18 0 25 -3 6 -5 1 -5 -13z"/>
<path d="M2915 4790 c9 -16 18 -30 21 -30 2 0 -2 14 -11 30 -9 17 -18 30 -21
30 -2 0 2 -13 11 -30z"/>
<path d="M5894 4804 c-18 -14 -18 -15 4 -4 12 6 22 13 22 15 0 8 -5 6 -26 -11z"/>
<path d="M6658 4803 c6 -2 18 -2 25 0 6 3 1 5 -13 5 -14 0 -19 -2 -12 -5z"/>
<path d="M5142 4775 c0 -16 2 -22 5 -12 2 9 2 23 0 30 -3 6 -5 -1 -5 -18z"/>
<path d="M5814 4758 c-55 -36 -147 -126 -165 -161 -6 -12 4 -4 22 18 48 57 97
101 152 137 42 28 54 38 44 38 -2 0 -26 -14 -53 -32z"/>
<path d="M3163 4758 c2 -15 6 -30 10 -34 10 -10 8 17 -3 41 -8 17 -9 16 -7 -7z"/>
<path d="M4091 4764 c0 -11 3 -14 6 -6 3 7 2 16 -1 19 -3 4 -6 -2 -5 -13z"/>
<path d="M7244 4744 c-19 -15 -19 -15 1 -6 11 5 27 12 35 15 13 5 13 6 -1 6
-8 1 -24 -6 -35 -15z"/>
<path d="M2946 4737 c3 -10 9 -15 12 -12 3 3 0 11 -7 18 -10 9 -11 8 -5 -6z"/>
<path d="M4102 4720 c0 -14 2 -19 5 -12 2 6 2 18 0 25 -3 6 -5 1 -5 -13z"/>
<path d="M7194 4714 c-18 -14 -18 -15 4 -4 12 6 22 13 22 15 0 8 -5 6 -26 -11z"/>
<path d="M3388 4713 c6 -2 18 -2 25 0 6 3 1 5 -13 5 -14 0 -19 -2 -12 -5z"/>
<path d="M2970 4690 c6 -11 13 -20 16 -20 2 0 0 9 -6 20 -6 11 -13 20 -16 20
-2 0 0 -9 6 -20z"/>
<path d="M5132 4690 c0 -14 2 -19 5 -12 2 6 2 18 0 25 -3 6 -5 1 -5 -13z"/>
<path d="M4111 4674 c0 -11 3 -14 6 -6 3 7 2 16 -1 19 -3 4 -6 -2 -5 -13z"/>
<path d="M6126 4675 c-9 -26 -7 -32 5 -12 6 10 9 21 6 23 -2 3 -7 -2 -11 -11z"/>
<path d="M3972 4653 c-11 -16 -29 -48 -41 -73 -24 -51 -15 -40 34 43 36 60 39
75 7 30z"/>
<path d="M4122 4635 c0 -11 4 -31 8 -45 6 -20 8 -21 8 -5 0 11 -4 31 -8 45 -6
20 -8 21 -8 5z"/>
<path d="M3015 4610 c9 -16 18 -30 21 -30 2 0 -2 14 -11 30 -9 17 -18 30 -21
30 -2 0 2 -13 11 -30z"/>
<path d="M7017 4611 c-60 -36 -74 -50 -22 -23 39 20 85 52 75 51 -3 0 -26 -13
-53 -28z"/>
<path d="M5122 4610 c0 -14 2 -19 5 -12 2 6 2 18 0 25 -3 6 -5 1 -5 -13z"/>
<path d="M7312 4610 c0 -14 2 -19 5 -12 2 6 2 18 0 25 -3 6 -5 1 -5 -13z"/>
<path d="M6086 4585 c-9 -26 -7 -32 5 -12 6 10 9 21 6 23 -2 3 -7 -2 -11 -11z"/>
<path d="M7321 4564 c0 -11 3 -14 6 -6 3 7 2 16 -1 19 -3 4 -6 -2 -5 -13z"/>
<path d="M3050 4550 c6 -11 13 -20 16 -20 2 0 0 9 -6 20 -6 11 -13 20 -16 20
-2 0 0 -9 6 -20z"/>
<path d="M4141 4534 c0 -11 3 -14 6 -6 3 7 2 16 -1 19 -3 4 -6 -2 -5 -13z"/>
<path d="M5111 4534 c0 -11 3 -14 6 -6 3 7 2 16 -1 19 -3 4 -6 -2 -5 -13z"/>
<path d="M6884 4534 c-18 -14 -18 -15 4 -4 12 6 22 13 22 15 0 8 -5 6 -26 -11z"/>
<path d="M3896 4515 c-9 -26 -7 -32 5 -12 6 10 9 21 6 23 -2 3 -7 -2 -11 -11z"/>
<path d="M5606 4515 c-9 -26 -7 -32 5 -12 6 10 9 21 6 23 -2 3 -7 -2 -11 -11z"/>
<path d="M6056 4515 c-9 -26 -7 -32 5 -12 6 10 9 21 6 23 -2 3 -7 -2 -11 -11z"/>
<path d="M4151 4494 c0 -11 3 -14 6 -6 3 7 2 16 -1 19 -3 4 -6 -2 -5 -13z"/>
<path d="M6814 4494 c-18 -14 -18 -15 4 -4 12 6 22 13 22 15 0 8 -5 6 -26 -11z"/>
<path d="M8275 4479 c-4 -6 -5 -12 -2 -15 2 -3 7 2 10 11 7 17 1 20 -8 4z"/>
<path d="M3110 4440 c11 -22 23 -40 25 -40 3 0 -4 18 -15 40 -11 22 -23 40
-25 40 -3 0 4 -18 15 -40z"/>
<path d="M5102 4460 c0 -14 2 -19 5 -12 2 6 2 18 0 25 -3 6 -5 1 -5 -13z"/>
<path d="M5591 4464 c0 -11 3 -14 6 -6 3 7 2 16 -1 19 -3 4 -6 -2 -5 -13z"/>
<path d="M4161 4454 c0 -11 3 -14 6 -6 3 7 2 16 -1 19 -3 4 -6 -2 -5 -13z"/>
<path d="M6744 4454 c-18 -14 -18 -15 4 -4 12 6 22 13 22 15 0 8 -5 6 -26 -11z"/>
<path d="M7351 4434 c0 -11 3 -14 6 -6 3 7 2 16 -1 19 -3 4 -6 -2 -5 -13z"/>
<path d="M5583 4395 c0 -27 2 -38 4 -22 2 15 2 37 0 50 -2 12 -4 0 -4 -28z"/>
<path d="M6649 4391 c-58 -44 -91 -79 -113 -121 -5 -8 3 -1 18 15 14 17 25 33
26 37 0 4 28 28 63 54 72 55 83 64 75 64 -3 0 -34 -22 -69 -49z"/>
<path d="M4171 4414 c0 -11 3 -14 6 -6 3 7 2 16 -1 19 -3 4 -6 -2 -5 -13z"/>
<path d="M8237 4395 c-24 -50 -20 -58 4 -12 11 22 19 41 17 43 -3 2 -12 -12
-21 -31z"/>
<path d="M3861 4404 c0 -11 3 -14 6 -6 3 7 2 16 -1 19 -3 4 -6 -2 -5 -13z"/>
<path d="M5092 4380 c0 -14 2 -19 5 -12 2 6 2 18 0 25 -3 6 -5 1 -5 -13z"/>
<path d="M3155 4360 c9 -16 18 -30 21 -30 2 0 -2 14 -11 30 -9 17 -18 30 -21
30 -2 0 2 -13 11 -30z"/>
<path d="M3851 4364 c0 -11 3 -14 6 -6 3 7 2 16 -1 19 -3 4 -6 -2 -5 -13z"/>
<path d="M4181 4364 c0 -11 3 -14 6 -6 3 7 2 16 -1 19 -3 4 -6 -2 -5 -13z"/>
<path d="M4191 4324 c0 -11 3 -14 6 -6 3 7 2 16 -1 19 -3 4 -6 -2 -5 -13z"/>
<path d="M3843 4265 c0 -38 2 -53 4 -32 2 20 2 52 0 70 -2 17 -4 1 -4 -38z"/>
<path d="M3195 4290 c9 -16 18 -30 21 -30 2 0 -2 14 -11 30 -9 17 -18 30 -21
30 -2 0 2 -13 11 -30z"/>
<path d="M5082 4300 c0 -14 2 -19 5 -12 2 6 2 18 0 25 -3 6 -5 1 -5 -13z"/>
<path d="M5582 4300 c0 -14 2 -19 5 -12 2 6 2 18 0 25 -3 6 -5 1 -5 -13z"/>
<path d="M7381 4304 c0 -11 3 -14 6 -6 3 7 2 16 -1 19 -3 4 -6 -2 -5 -13z"/>
<path d="M4201 4284 c0 -11 3 -14 6 -6 3 7 2 16 -1 19 -3 4 -6 -2 -5 -13z"/>
<path d="M4972 4250 c0 -14 2 -19 5 -12 2 6 2 18 0 25 -3 6 -5 1 -5 -13z"/>
<path d="M5936 4255 c-9 -26 -7 -32 5 -12 6 10 9 21 6 23 -2 3 -7 -2 -11 -11z"/>
<path d="M3240 4210 c11 -22 23 -40 25 -40 3 0 -4 18 -15 40 -11 22 -23 40
-25 40 -3 0 4 -18 15 -40z"/>
<path d="M4211 4234 c0 -11 3 -14 6 -6 3 7 2 16 -1 19 -3 4 -6 -2 -5 -13z"/>
<path d="M5072 4215 c0 -16 2 -22 5 -12 2 9 2 23 0 30 -3 6 -5 -1 -5 -18z"/>
<path d="M7402 4210 c0 -14 2 -19 5 -12 2 6 2 18 0 25 -3 6 -5 1 -5 -13z"/>
<path d="M4222 4190 c0 -14 2 -19 5 -12 2 6 2 18 0 25 -3 6 -5 1 -5 -13z"/>
<path d="M3851 4174 c0 -11 3 -14 6 -6 3 7 2 16 -1 19 -3 4 -6 -2 -5 -13z"/>
<path d="M4961 4174 c0 -11 3 -14 6 -6 3 7 2 16 -1 19 -3 4 -6 -2 -5 -13z"/>
<path d="M5660 4155 c13 -14 26 -25 28 -25 3 0 -5 11 -18 25 -13 14 -26 25
-28 25 -3 0 5 -11 18 -25z"/>
<path d="M7412 4160 c0 -14 2 -19 5 -12 2 6 2 18 0 25 -3 6 -5 1 -5 -13z"/>
<path d="M8126 4155 c-9 -26 -7 -32 5 -12 6 10 9 21 6 23 -2 3 -7 -2 -11 -11z"/>
<path d="M3285 4130 c9 -16 18 -30 21 -30 2 0 -2 14 -11 30 -9 17 -18 30 -21
30 -2 0 2 -13 11 -30z"/>
<path d="M4231 4144 c0 -11 3 -14 6 -6 3 7 2 16 -1 19 -3 4 -6 -2 -5 -13z"/>
<path d="M5062 4140 c0 -14 2 -19 5 -12 2 6 2 18 0 25 -3 6 -5 1 -5 -13z"/>
<path d="M7422 4105 c0 -16 2 -22 5 -12 2 9 2 23 0 30 -3 6 -5 -1 -5 -18z"/>
<path d="M4241 4104 c0 -11 3 -14 6 -6 3 7 2 16 -1 19 -3 4 -6 -2 -5 -13z"/>
<path d="M4951 4094 c0 -11 3 -14 6 -6 3 7 2 16 -1 19 -3 4 -6 -2 -5 -13z"/>
<path d="M5746 4097 c3 -10 9 -15 12 -12 3 3 0 11 -7 18 -10 9 -11 8 -5 -6z"/>
<path d="M3325 4060 c9 -16 18 -30 21 -30 2 0 -2 14 -11 30 -9 17 -18 30 -21
30 -2 0 2 -13 11 -30z"/>
<path d="M5051 4074 c0 -11 3 -14 6 -6 3 7 2 16 -1 19 -3 4 -6 -2 -5 -13z"/>
<path d="M7432 4030 c0 -19 2 -27 5 -17 2 9 2 25 0 35 -3 9 -5 1 -5 -18z"/>
<path d="M4942 4015 c0 -16 2 -22 5 -12 2 9 2 23 0 30 -3 6 -5 -1 -5 -18z"/>
<path d="M8062 4015 c-17 -37 -14 -45 4 -12 9 16 14 31 11 33 -2 2 -9 -7 -15
-21z"/>
<path d="M5716 4015 c-9 -26 -7 -32 5 -12 6 10 9 21 6 23 -2 3 -7 -2 -11 -11z"/>
<path d="M3365 3990 c9 -16 18 -30 21 -30 2 0 -2 14 -11 30 -9 17 -18 30 -21
30 -2 0 2 -13 11 -30z"/>
<path d="M5822 3995 c-17 -37 -14 -45 4 -12 9 16 14 31 11 33 -2 2 -9 -7 -15
-21z"/>
<path d="M4271 3984 c0 -11 3 -14 6 -6 3 7 2 16 -1 19 -3 4 -6 -2 -5 -13z"/>
<path d="M3994 3966 c11 -9 24 -16 30 -16 12 0 7 5 -24 19 -24 11 -24 11 -6
-3z"/>
<path d="M7431 3964 c0 -11 3 -14 6 -6 3 7 2 16 -1 19 -3 4 -6 -2 -5 -13z"/>
<path d="M6530 3945 c13 -14 26 -25 28 -25 3 0 -5 11 -18 25 -13 14 -26 25
-28 25 -3 0 5 -11 18 -25z"/>
<path d="M4281 3944 c0 -11 3 -14 6 -6 3 7 2 16 -1 19 -3 4 -6 -2 -5 -13z"/>
<path d="M4932 3940 c0 -14 2 -19 5 -12 2 6 2 18 0 25 -3 6 -5 1 -5 -13z"/>
<path d="M3410 3910 c11 -22 23 -40 25 -40 3 0 -4 18 -15 40 -11 22 -23 40
-25 40 -3 0 4 -18 15 -40z"/>
<path d="M5031 3934 c0 -11 3 -14 6 -6 3 7 2 16 -1 19 -3 4 -6 -2 -5 -13z"/>
<path d="M5676 3923 c-6 -14 -5 -15 5 -6 7 7 10 15 7 18 -3 3 -9 -2 -12 -12z"/>
<path d="M5786 3915 c-9 -26 -7 -32 5 -12 6 10 9 21 6 23 -2 3 -7 -2 -11 -11z"/>
<path d="M4291 3904 c0 -11 3 -14 6 -6 3 7 2 16 -1 19 -3 4 -6 -2 -5 -13z"/>
<path d="M7421 3904 c0 -11 3 -14 6 -6 3 7 2 16 -1 19 -3 4 -6 -2 -5 -13z"/>
<path d="M5656 3885 c-9 -26 -7 -32 5 -12 6 10 9 21 6 23 -2 3 -7 -2 -11 -11z"/>
<path d="M6829 3873 c-13 -16 -12 -17 4 -4 9 7 17 15 17 17 0 8 -8 3 -21 -13z"/>
<path d="M4302 3860 c0 -14 2 -19 5 -12 2 6 2 18 0 25 -3 6 -5 1 -5 -13z"/>
<path d="M4922 3855 c0 -16 2 -22 5 -12 2 9 2 23 0 30 -3 6 -5 -1 -5 -18z"/>
<path d="M5022 3850 c0 -19 2 -27 5 -17 2 9 2 25 0 35 -3 9 -5 1 -5 -18z"/>
<path d="M3460 3820 c11 -22 23 -40 25 -40 3 0 -4 18 -15 40 -11 22 -23 40
-25 40 -3 0 4 -18 15 -40z"/>
<path d="M4212 3820 c0 -14 2 -19 5 -12 2 6 2 18 0 25 -3 6 -5 1 -5 -13z"/>
<path d="M5746 3825 c-9 -26 -7 -32 5 -12 6 10 9 21 6 23 -2 3 -7 -2 -11 -11z"/>
<path d="M4311 3814 c0 -11 3 -14 6 -6 3 7 2 16 -1 19 -3 4 -6 -2 -5 -13z"/>
<path d="M5626 3815 c-9 -26 -7 -32 5 -12 6 10 9 21 6 23 -2 3 -7 -2 -11 -11z"/>
<path d="M6774 3808 l-19 -23 23 19 c12 11 22 21 22 23 0 8 -8 2 -26 -19z"/>
<path d="M4913 3775 c0 -22 2 -30 4 -17 2 12 2 30 0 40 -3 9 -5 -1 -4 -23z"/>
<path d="M7952 3775 c-17 -37 -14 -45 4 -12 9 16 14 31 11 33 -2 2 -9 -7 -15
-21z"/>
<path d="M4221 3774 c0 -11 3 -14 6 -6 3 7 2 16 -1 19 -3 4 -6 -2 -5 -13z"/>
<path d="M4321 3774 c0 -11 3 -14 6 -6 3 7 2 16 -1 19 -3 4 -6 -2 -5 -13z"/>
<path d="M5012 3765 c0 -16 2 -22 5 -12 2 9 2 23 0 30 -3 6 -5 -1 -5 -18z"/>
<path d="M7354 3758 l-19 -23 23 19 c12 11 22 21 22 23 0 8 -8 2 -26 -19z"/>
<path d="M3505 3740 c9 -16 18 -30 21 -30 2 0 -2 14 -11 30 -9 17 -18 30 -21
30 -2 0 2 -13 11 -30z"/>
<path d="M4331 3734 c0 -11 3 -14 6 -6 3 7 2 16 -1 19 -3 4 -6 -2 -5 -13z"/>
<path d="M5706 3735 c-9 -26 -7 -32 5 -12 6 10 9 21 6 23 -2 3 -7 -2 -11 -11z"/>
<path d="M6883 3715 c0 -22 2 -30 4 -17 2 12 2 30 0 40 -3 9 -5 -1 -4 -23z"/>
<path d="M6980 3731 c5 -11 15 -23 21 -27 6 -3 3 5 -6 20 -20 30 -30 35 -15 7z"/>
<path d="M5582 3715 c-17 -37 -14 -45 4 -12 9 16 14 31 11 33 -2 2 -9 -7 -15
-21z"/>
<path d="M7299 3703 l-24 -28 28 24 c15 14 27 26 27 28 0 8 -8 1 -31 -24z"/>
<path d="M5002 3690 c0 -19 2 -27 5 -17 2 9 2 25 0 35 -3 9 -5 1 -5 -18z"/>
<path d="M4902 3685 c0 -16 2 -22 5 -12 2 9 2 23 0 30 -3 6 -5 -1 -5 -18z"/>
<path d="M4342 3680 c0 -14 2 -19 5 -12 2 6 2 18 0 25 -3 6 -5 1 -5 -13z"/>
<path d="M7047 3679 c7 -7 15 -10 18 -7 3 3 -2 9 -12 12 -14 6 -15 5 -6 -5z"/>
<path d="M3555 3650 c9 -16 18 -30 21 -30 2 0 -2 14 -11 30 -9 17 -18 30 -21
30 -2 0 2 -13 11 -30z"/>
<path d="M6570 3660 c-9 -6 -10 -10 -3 -10 6 0 15 5 18 10 8 12 4 12 -15 0z"/>
<path d="M4251 3644 c0 -11 3 -14 6 -6 3 7 2 16 -1 19 -3 4 -6 -2 -5 -13z"/>
<path d="M7143 3653 c9 -2 23 -2 30 0 6 3 -1 5 -18 5 -16 0 -22 -2 -12 -5z"/>
<path d="M4351 3634 c0 -11 3 -14 6 -6 3 7 2 16 -1 19 -3 4 -6 -2 -5 -13z"/>
<path d="M5537 3615 c-24 -50 -20 -58 4 -12 11 22 19 41 17 43 -3 2 -12 -12
-21 -31z"/>
<path d="M6891 3624 c0 -11 3 -14 6 -6 3 7 2 16 -1 19 -3 4 -6 -2 -5 -13z"/>
<path d="M4892 3605 c0 -16 2 -22 5 -12 2 9 2 23 0 30 -3 6 -5 -1 -5 -18z"/>
<path d="M4992 3605 c0 -16 2 -22 5 -12 2 9 2 23 0 30 -3 6 -5 -1 -5 -18z"/>
<path d="M3595 3580 c9 -16 18 -30 21 -30 2 0 -2 14 -11 30 -9 17 -18 30 -21
30 -2 0 2 -13 11 -30z"/>
<path d="M4261 3594 c0 -11 3 -14 6 -6 3 7 2 16 -1 19 -3 4 -6 -2 -5 -13z"/>
<path d="M4361 3594 c0 -11 3 -14 6 -6 3 7 2 16 -1 19 -3 4 -6 -2 -5 -13z"/>
<path d="M5645 3599 c-4 -6 -5 -12 -2 -15 2 -3 7 2 10 11 7 17 1 20 -8 4z"/>
<path d="M4271 3554 c0 -11 3 -14 6 -6 3 7 2 16 -1 19 -3 4 -6 -2 -5 -13z"/>
<path d="M4371 3554 c0 -11 3 -14 6 -6 3 7 2 16 -1 19 -3 4 -6 -2 -5 -13z"/>
<path d="M4982 3530 c0 -19 2 -27 5 -17 2 9 2 25 0 35 -3 9 -5 1 -5 -18z"/>
<path d="M7846 3545 c-9 -26 -7 -32 5 -12 6 10 9 21 6 23 -2 3 -7 -2 -11 -11z"/>
<path d="M4882 3530 c0 -14 2 -19 5 -12 2 6 2 18 0 25 -3 6 -5 1 -5 -13z"/>
<path d="M3640 3500 c11 -22 23 -40 25 -40 3 0 -4 18 -15 40 -11 22 -23 40
-25 40 -3 0 4 -18 15 -40z"/>
<path d="M5496 3525 c-9 -26 -7 -32 5 -12 6 10 9 21 6 23 -2 3 -7 -2 -11 -11z"/>
<path d="M6850 3530 c8 -5 20 -10 25 -10 6 0 3 5 -5 10 -8 5 -19 10 -25 10 -5
0 -3 -5 5 -10z"/>
<path d="M4281 3514 c0 -11 3 -14 6 -6 3 7 2 16 -1 19 -3 4 -6 -2 -5 -13z"/>
<path d="M4381 3504 c0 -11 3 -14 6 -6 3 7 2 16 -1 19 -3 4 -6 -2 -5 -13z"/>
<path d="M5592 3485 c-17 -37 -14 -45 4 -12 9 16 14 31 11 33 -2 2 -9 -7 -15
-21z"/>
<path d="M4391 3464 c0 -11 3 -14 6 -6 3 7 2 16 -1 19 -3 4 -6 -2 -5 -13z"/>
<path d="M4972 3450 c0 -14 2 -19 5 -12 2 6 2 18 0 25 -3 6 -5 1 -5 -13z"/>
<path d="M3680 3430 c6 -11 13 -20 16 -20 2 0 0 9 -6 20 -6 11 -13 20 -16 20
-2 0 0 -9 6 -20z"/>
<path d="M4301 3424 c0 -11 3 -14 6 -6 3 7 2 16 -1 19 -3 4 -6 -2 -5 -13z"/>
<path d="M7282 3420 c-18 -29 -15 -38 4 -12 9 13 14 25 12 27 -2 2 -9 -5 -16
-15z"/>
<path d="M4401 3414 c0 -11 3 -14 6 -6 3 7 2 16 -1 19 -3 4 -6 -2 -5 -13z"/>
<path d="M3734 3335 c21 -38 43 -74 48 -80 13 -13 -61 126 -75 140 -6 6 7 -21
27 -60z"/>
<path d="M4962 3365 c0 -16 2 -22 5 -12 2 9 2 23 0 30 -3 6 -5 -1 -5 -18z"/>
<path d="M4862 3350 c0 -19 2 -27 5 -17 2 9 2 25 0 35 -3 9 -5 1 -5 -18z"/>
<path d="M7262 3360 c0 -14 2 -19 5 -12 2 6 2 18 0 25 -3 6 -5 1 -5 -13z"/>
<path d="M7523 3369 c11 -6 18 -24 19 -47 l1 -37 4 33 c4 34 -10 62 -31 62 -6
0 -3 -5 7 -11z"/>
<path d="M4422 3340 c0 -14 2 -19 5 -12 2 6 2 18 0 25 -3 6 -5 1 -5 -13z"/>
<path d="M4321 3334 c0 -11 3 -14 6 -6 3 7 2 16 -1 19 -3 4 -6 -2 -5 -13z"/>
<path d="M5411 3304 c0 -11 3 -14 6 -6 3 7 2 16 -1 19 -3 4 -6 -2 -5 -13z"/>
<path d="M4331 3294 c0 -11 3 -14 6 -6 3 7 2 16 -1 19 -3 4 -6 -2 -5 -13z"/>
<path d="M4432 3290 c0 -14 2 -19 5 -12 2 6 2 18 0 25 -3 6 -5 1 -5 -13z"/>
<path d="M5401 3264 c0 -11 3 -14 6 -6 3 7 2 16 -1 19 -3 4 -6 -2 -5 -13z"/>
<path d="M4342 3250 c0 -14 2 -19 5 -12 2 6 2 18 0 25 -3 6 -5 1 -5 -13z"/>
<path d="M5511 3254 c0 -11 3 -14 6 -6 3 7 2 16 -1 19 -3 4 -6 -2 -5 -13z"/>
<path d="M4441 3244 c0 -11 3 -14 6 -6 3 7 2 16 -1 19 -3 4 -6 -2 -5 -13z"/>
<path d="M4962 3240 c0 -14 2 -19 5 -12 2 6 2 18 0 25 -3 6 -5 1 -5 -13z"/>
<path d="M4861 3214 c0 -11 3 -14 6 -6 3 7 2 16 -1 19 -3 4 -6 -2 -5 -13z"/>
<path d="M3815 3190 c9 -16 18 -30 21 -30 2 0 -2 14 -11 30 -9 17 -18 30 -21
30 -2 0 2 -13 11 -30z"/>
<path d="M4351 3204 c0 -11 3 -14 6 -6 3 7 2 16 -1 19 -3 4 -6 -2 -5 -13z"/>
<path d="M4452 3200 c0 -14 2 -19 5 -12 2 6 2 18 0 25 -3 6 -5 1 -5 -13z"/>
<path d="M5411 3184 c0 -11 3 -14 6 -6 3 7 2 16 -1 19 -3 4 -6 -2 -5 -13z"/>
<path d="M4361 3164 c0 -11 3 -14 6 -6 3 7 2 16 -1 19 -3 4 -6 -2 -5 -13z"/>
<path d="M4461 3154 c0 -11 3 -14 6 -6 3 7 2 16 -1 19 -3 4 -6 -2 -5 -13z"/>
<path d="M5570 3125 c19 -19 36 -35 39 -35 3 0 -10 16 -29 35 -19 19 -36 35
-39 35 -3 0 10 -16 29 -35z"/>
<path d="M4372 3120 c0 -14 2 -19 5 -12 2 6 2 18 0 25 -3 6 -5 1 -5 -13z"/>
<path d="M3865 3100 c9 -16 18 -30 21 -30 2 0 -2 14 -11 30 -9 17 -18 30 -21
30 -2 0 2 -13 11 -30z"/>
<path d="M4471 3114 c0 -11 3 -14 6 -6 3 7 2 16 -1 19 -3 4 -6 -2 -5 -13z"/>
<path d="M7642 3105 c-17 -37 -14 -45 4 -12 9 16 14 31 11 33 -2 2 -9 -7 -15
-21z"/>
<path d="M5050 3110 c8 -5 20 -10 25 -10 6 0 3 5 -5 10 -8 5 -19 10 -25 10 -5
0 -3 -5 5 -10z"/>
<path d="M5460 3096 c0 -2 8 -10 18 -17 15 -13 16 -12 3 4 -13 16 -21 21 -21
13z"/>
<path d="M4954 3061 c7 -11 46 -35 46 -28 0 3 -12 12 -26 22 -15 9 -23 12 -20
6z"/>
<path d="M5298 3063 c6 -2 18 -2 25 0 6 3 1 5 -13 5 -14 0 -19 -2 -12 -5z"/>
<path d="M4490 3056 c0 -2 8 -10 18 -17 15 -13 16 -12 3 4 -13 16 -21 21 -21
13z"/>
<path d="M5388 3053 c6 -2 18 -2 25 0 6 3 1 5 -13 5 -14 0 -19 -2 -12 -5z"/>
<path d="M3915 3010 c9 -16 18 -30 21 -30 2 0 -2 14 -11 30 -9 17 -18 30 -21
30 -2 0 2 -13 11 -30z"/>
<path d="M5730 3036 c0 -2 7 -7 16 -10 8 -3 12 -2 9 4 -6 10 -25 14 -25 6z"/>
<path d="M7600 3019 c-7 -11 -10 -23 -7 -25 2 -2 9 7 15 21 14 30 7 33 -8 4z"/>
<path d="M4400 3014 c0 -6 7 -19 16 -30 14 -18 14 -18 3 6 -14 31 -19 36 -19
24z"/>
<path d="M5810 2995 c14 -8 30 -14 35 -14 6 0 -1 6 -15 14 -14 8 -29 14 -35
14 -5 0 1 -6 15 -14z"/>
<path d="M4557 2989 c7 -7 15 -10 18 -7 3 3 -2 9 -12 12 -14 6 -15 5 -6 -5z"/>
<path d="M4778 2983 c7 -3 16 -2 19 1 4 3 -2 6 -13 5 -11 0 -14 -3 -6 -6z"/>
<path d="M4728 2973 c7 -3 16 -2 19 1 4 3 -2 6 -13 5 -11 0 -14 -3 -6 -6z"/>
<path d="M4430 2956 c0 -2 8 -10 18 -17 15 -13 16 -12 3 4 -13 16 -21 21 -21
13z"/>
<path d="M5910 2950 c8 -5 20 -10 25 -10 6 0 3 5 -5 10 -8 5 -19 10 -25 10 -5
0 -3 -5 5 -10z"/>
<path d="M7330 2910 c-12 -16 -19 -30 -16 -30 2 0 14 14 26 30 12 17 19 30 16
30 -2 0 -14 -13 -26 -30z"/>
<path d="M3975 2900 c9 -16 18 -30 21 -30 2 0 -2 14 -11 30 -9 17 -18 30 -21
30 -2 0 2 -13 11 -30z"/>
<path d="M7091 2914 c0 -11 3 -14 6 -6 3 7 2 16 -1 19 -3 4 -6 -2 -5 -13z"/>
<path d="M4507 2889 c7 -7 15 -10 18 -7 3 3 -2 9 -12 12 -14 6 -15 5 -6 -5z"/>
<path d="M6090 2870 c8 -5 20 -10 25 -10 6 0 3 5 -5 10 -8 5 -19 10 -25 10 -5
0 -3 -5 5 -10z"/>
<path d="M7081 2864 c0 -11 3 -14 6 -6 3 7 2 16 -1 19 -3 4 -6 -2 -5 -13z"/>
<path d="M7526 2865 c-9 -26 -7 -32 5 -12 6 10 9 21 6 23 -2 3 -7 -2 -11 -11z"/>
<path d="M4040 2780 c6 -11 13 -20 16 -20 2 0 0 9 -6 20 -6 11 -13 20 -16 20
-2 0 0 -9 6 -20z"/>
<path d="M7061 2784 c0 -11 3 -14 6 -6 3 7 2 16 -1 19 -3 4 -6 -2 -5 -13z"/>
<path d="M6000 2780 c0 -5 -18 -10 -40 -10 -64 0 -224 -28 -375 -65 -162 -39
-325 -55 -569 -55 -233 1 -298 10 -347 49 l-39 32 -87 -7 c-72 -6 -85 -5 -78
7 5 9 1 8 -11 -3 -17 -15 -65 -17 -494 -17 -536 -1 -506 3 -517 -80 -5 -34 -1
-50 24 -90 l30 -48 5 -352 c2 -194 1 -354 -3 -356 -3 -3 -14 23 -23 58 -9 34
-30 114 -46 177 -17 63 -58 221 -91 350 -69 269 -87 316 -124 330 -15 6 -101
10 -193 10 -148 0 -171 -2 -199 -20 -43 -26 -51 -71 -26 -147 l19 -58 -78
-275 c-79 -279 -108 -377 -135 -463 l-15 -47 -17 22 c-19 24 -121 232 -121
246 0 4 15 23 34 41 81 79 128 242 106 369 -30 176 -141 290 -314 321 -33 6
-165 11 -294 11 l-234 0 -30 -31 -31 -30 -56 29 c-74 40 -163 56 -256 49 -91
-8 -149 -27 -231 -78 -56 -34 -64 -36 -64 -19 0 10 -11 32 -24 47 l-24 28
-210 3 c-207 3 -210 3 -236 -20 -19 -16 -28 -37 -32 -71 -6 -43 -4 -52 25 -92
l32 -44 -3 -409 -3 -408 -28 -33 c-33 -40 -36 -100 -8 -148 17 -27 27 -32 73
-38 30 -4 129 -5 220 -3 141 2 169 6 185 21 25 22 32 22 117 -9 166 -60 342
-33 464 72 22 19 43 34 46 34 3 0 8 -15 11 -32 8 -43 25 -65 59 -78 36 -13
366 -13 403 0 15 6 39 24 53 41 l26 30 35 -34 c45 -43 63 -46 359 -46 282 -1
311 2 351 40 30 28 31 33 26 82 -4 35 -13 57 -27 69 -26 21 -28 84 -2 92 20 6
80 6 104 0 29 -8 30 -49 3 -100 -45 -85 -24 -157 50 -174 20 -4 257 -8 529 -9
l493 -1 47 24 46 24 27 -22 c27 -20 37 -21 338 -21 354 0 350 -1 388 83 19 41
22 65 22 194 l0 147 114 -2 115 -2 17 -72 c43 -176 133 -281 294 -343 50 -20
79 -24 170 -24 94 0 121 4 188 27 91 32 104 33 130 10 16 -15 43 -19 167 -21
222 -5 259 12 265 120 2 39 -2 59 -15 75 -20 26 -16 61 9 80 18 14 79 17 98 5
19 -12 27 -79 10 -88 -43 -26 -51 -121 -13 -158 32 -33 100 -38 471 -34 269 3
304 5 337 22 21 10 43 15 50 12 7 -4 24 -13 38 -21 49 -28 135 -13 182 32 22
21 28 23 28 10 0 -9 12 -25 27 -34 38 -25 346 -32 411 -10 37 13 48 13 91 0
40 -11 112 -13 358 -11 305 3 308 3 341 27 l33 23 62 -27 c135 -58 300 -57
431 5 259 123 314 481 104 675 -32 30 -71 62 -87 71 -16 10 -32 26 -34 36 -4
15 -1 17 21 11 46 -13 119 -7 146 10 15 10 30 33 37 59 16 60 4 239 -21 294
-17 41 -22 44 -100 69 -204 64 -385 34 -505 -85 -48 -47 -56 -49 -49 -11 7 33
-24 94 -52 105 -9 3 -174 6 -367 6 -307 0 -353 -2 -368 -16 -16 -15 -20 -15
-41 0 -32 22 -335 23 -378 1 -32 -17 -37 -28 -114 -270 l-54 -169 -12 44 c-21
79 -78 263 -101 327 -33 90 -50 95 -288 91 -178 -3 -183 -4 -202 -27 -25 -31
-25 -95 1 -149 11 -22 20 -48 20 -57 0 -8 5 -15 10 -15 12 0 13 -664 1 -694
-6 -15 -12 -5 -24 45 -43 165 -110 419 -151 569 -25 91 -42 166 -37 168 15 5
-52 130 -77 144 -18 9 -72 13 -193 13 l-168 0 -30 -29 c-41 -39 -45 -66 -21
-137 l21 -60 -37 -137 c-43 -165 -103 -370 -138 -472 l-25 -75 4 85 c2 47 9
112 16 146 27 131 6 144 -241 144 -202 0 -212 -3 -226 -74 -8 -47 0 -76 31
-112 23 -27 25 -36 25 -136 0 -89 -2 -106 -14 -102 -14 5 -37 47 -51 92 -13
45 -22 238 -14 323 9 98 27 151 66 192 47 48 91 30 112 -48 20 -72 41 -85 138
-85 74 0 81 3 106 40 24 34 25 281 1 339 -12 31 -13 44 -4 61 19 36 4 87 -30
105 -17 9 -30 11 -30 5z m-4430 -181 c70 -39 84 -66 88 -170 l4 -89 -31 0
c-25 0 -35 6 -49 31 -40 74 -59 94 -104 113 -55 23 -104 16 -147 -19 -36 -31
-45 -64 -31 -116 15 -55 65 -105 189 -192 120 -84 153 -120 181 -200 58 -165
-11 -330 -170 -406 -49 -23 -67 -26 -160 -26 -118 0 -206 21 -240 57 -19 20
-20 33 -18 138 2 69 7 115 13 114 6 0 37 -33 69 -73 70 -87 106 -111 164 -111
51 0 91 19 125 59 76 90 23 206 -145 317 -127 85 -164 120 -194 181 -38 77
-40 183 -5 256 29 59 97 120 165 147 75 30 234 24 296 -11z m4296 16 c108 -21
111 -25 116 -165 l3 -115 -35 -1 c-33 0 -36 3 -62 58 -23 50 -34 62 -72 79
-86 38 -171 2 -217 -90 -39 -77 -49 -145 -49 -320 0 -164 10 -223 50 -306 36
-75 115 -112 183 -86 l27 11 0 157 c0 152 -1 160 -25 195 -14 20 -25 42 -25
47 0 7 49 11 140 11 156 0 164 -4 136 -59 -13 -24 -16 -66 -16 -216 0 -109 -4
-194 -10 -206 -24 -44 -167 -89 -285 -89 -197 0 -333 112 -381 316 -21 90 -25
355 -5 434 21 85 76 193 125 243 99 102 230 135 402 102z m3529 0 c44 -8 90
-17 101 -20 19 -4 22 -14 29 -90 9 -114 2 -145 -35 -145 -21 0 -30 7 -39 28
-42 97 -147 139 -222 89 -44 -30 -61 -63 -55 -111 7 -62 52 -114 166 -193 129
-89 171 -132 200 -209 18 -48 21 -73 18 -134 -11 -184 -127 -295 -322 -307
-79 -5 -192 11 -258 36 l-28 11 0 125 c0 118 1 125 20 125 11 0 27 -12 37 -27
35 -57 85 -114 113 -128 16 -8 54 -15 84 -15 50 0 60 4 96 36 49 44 66 96 50
154 -15 56 -47 90 -168 174 -158 110 -197 155 -217 255 -33 162 65 320 218
351 66 12 125 11 212 -5z m-8397 -17 c2 -9 -12 -33 -30 -54 l-33 -37 -3 -439
-3 -439 32 -29 c20 -18 30 -34 26 -44 -5 -14 -30 -16 -171 -16 -91 0 -167 4
-170 9 -3 5 8 26 24 46 l30 38 0 429 c0 447 -2 473 -43 507 -48 39 -11 46 238
46 85 0 100 -2 103 -17z m2174 4 c8 -8 72 -250 194 -726 54 -214 60 -232 96
-273 21 -25 36 -49 33 -54 -4 -5 -86 -9 -185 -9 -167 0 -179 1 -173 18 4 9 19
29 35 44 32 30 33 47 9 138 l-17 65 -141 3 c-159 3 -143 12 -168 -94 -19 -84
-20 -78 16 -118 17 -20 28 -40 24 -46 -4 -6 -62 -10 -151 -10 -165 0 -171 4
-104 67 37 35 43 49 71 153 16 63 66 246 111 405 94 334 99 362 69 404 -12 16
-21 32 -21 35 0 15 286 14 302 -2z m966 8 c21 0 22 -3 22 -104 0 -58 -4 -108
-10 -111 -5 -3 -33 12 -61 35 l-51 40 -114 0 -114 0 0 -150 0 -150 59 0 c46 0
71 7 117 30 31 17 61 27 64 23 10 -11 19 -218 11 -232 -6 -8 -16 -8 -42 3 -49
21 -153 38 -183 30 l-26 -6 0 -181 0 -180 105 6 c114 7 176 30 224 81 47 50
55 38 48 -79 -3 -58 -9 -110 -12 -115 -9 -14 -635 -14 -635 1 0 6 12 26 27 46
l28 36 -1 181 c0 100 -1 300 -2 446 l-2 266 -30 32 c-16 18 -30 37 -30 42 0
15 74 18 335 14 138 -2 260 -4 273 -4z m491 -5 c9 -5 7 -13 -7 -29 -11 -11
-29 -37 -41 -56 -20 -34 -21 -46 -21 -449 l0 -413 103 4 c123 5 165 22 208 85
32 46 66 56 61 18 -1 -11 -8 -65 -15 -120 l-12 -100 -302 -3 c-329 -3 -325 -3
-282 51 20 26 20 37 19 479 -1 483 2 449 -45 515 -7 9 -6 16 2 21 15 9 317 7
332 -3z m2024 8 c5 -8 130 -472 212 -788 44 -173 49 -186 86 -221 16 -15 29
-36 29 -46 0 -17 -13 -18 -175 -18 -122 0 -175 3 -175 11 0 6 14 27 31 47 29
33 31 39 25 86 -3 28 -11 68 -16 89 l-11 38 -141 -3 -141 -3 -19 -65 c-23 -85
-23 -96 7 -132 14 -16 25 -38 25 -49 0 -18 -9 -19 -150 -19 -138 0 -150 1
-150 18 0 10 16 34 36 53 20 18 42 45 49 59 19 37 210 718 231 827 5 24 1 42
-15 68 -12 20 -19 40 -16 44 6 11 272 14 278 4z m769 -213 c37 -118 82 -262
99 -320 18 -58 35 -108 39 -113 5 -6 152 431 195 586 16 56 17 57 53 58 63 3
267 -2 271 -7 2 -2 -8 -21 -23 -42 l-26 -38 0 -435 c0 -433 0 -434 23 -468 55
-84 67 -76 -120 -79 -102 -1 -170 1 -177 8 -6 6 4 22 31 48 l41 37 7 375 c4
206 4 373 1 370 -3 -3 -36 -109 -74 -235 -132 -437 -174 -569 -183 -587 -7
-13 -22 -18 -50 -18 -35 0 -41 4 -54 33 -16 37 -156 484 -206 660 -19 64 -38
117 -42 117 -5 0 -6 -7 -3 -16 3 -9 6 -168 6 -355 l0 -339 45 -32 c25 -18 45
-40 45 -50 0 -16 -12 -18 -139 -18 -90 0 -142 4 -147 11 -3 6 7 24 22 40 l29
30 0 443 0 442 -27 42 c-16 23 -28 46 -28 51 0 12 61 17 209 16 l115 0 68
-215z m1401 210 c4 0 7 -56 7 -125 0 -138 -7 -152 -47 -90 -39 59 -64 69 -190
75 l-113 5 0 -152 0 -153 65 0 c41 0 83 7 116 20 29 12 58 19 66 16 10 -4 13
-33 13 -116 0 -122 -2 -125 -63 -94 -17 9 -68 20 -114 23 l-83 7 0 -185 0
-184 83 6 c130 9 175 25 229 79 26 27 51 48 57 48 17 0 17 -184 0 -226 l-9
-24 -314 0 c-214 0 -317 3 -321 11 -4 6 2 21 14 33 12 13 26 38 31 57 6 19 10
206 10 440 l0 407 -30 57 c-16 31 -30 59 -30 61 0 6 170 9 395 7 121 -2 223
-3 228 -3z m-6478 -28 c64 -29 91 -55 122 -116 50 -98 49 -244 -2 -332 -23
-38 -81 -97 -119 -119 -15 -9 -9 -28 62 -185 43 -96 95 -197 115 -223 20 -27
37 -53 37 -58 0 -15 -226 -11 -238 4 -17 20 -79 148 -112 232 -17 42 -42 98
-55 126 -23 45 -28 49 -60 49 l-35 0 0 -179 c0 -140 3 -181 14 -190 8 -6 16
-21 19 -31 5 -19 -1 -20 -154 -20 -184 0 -196 6 -138 66 l34 35 3 382 c2 210
0 405 -3 434 -4 33 -17 68 -35 95 -17 24 -30 47 -30 51 0 5 118 7 263 5 249
-3 265 -4 312 -26z m3010 -48 c-52 -76 -77 -136 -114 -271 l-11 -41 -183 -4
c-201 -4 -229 -11 -247 -61 -5 -16 -10 -74 -10 -127 0 -83 3 -101 21 -124 11
-14 25 -23 31 -20 7 4 6 0 0 -13 -17 -32 -91 -94 -136 -114 l-41 -18 -3 367
c-2 332 -1 368 14 379 9 7 24 24 33 38 l16 25 312 3 c231 1 315 5 324 14 24
24 20 5 -6 -33z m2814 -458 c0 -215 -4 -399 -8 -410 -7 -17 -8 -17 -24 -2 -15
16 -17 54 -17 409 0 216 3 403 7 416 l6 24 19 -22 c17 -22 18 -49 17 -415z
m-6712 317 c7 -10 19 -31 27 -48 7 -16 28 -43 45 -59 26 -25 40 -30 84 -30 51
-1 58 2 122 48 20 15 20 13 20 -129 0 -80 -2 -145 -5 -145 -3 0 -23 23 -44 51
-47 61 -99 105 -220 184 -101 67 -127 105 -91 131 25 19 45 18 62 -3z m7869 2
c22 -21 48 -115 36 -127 -14 -14 -74 33 -97 76 -16 29 -17 37 -6 50 17 20 48
21 67 1z m-5297 -40 c8 -16 18 -31 23 -33 19 -8 6 -19 -17 -14 -14 2 -42 -5
-65 -17 -22 -11 -45 -21 -50 -21 -6 0 -10 27 -10 61 l0 60 52 -3 c48 -3 54 -6
67 -33z m4624 26 c20 -8 74 -79 65 -86 -2 -1 -30 -7 -63 -15 -33 -7 -66 -15
-72 -17 -10 -4 -13 12 -13 61 l0 66 29 0 c16 0 41 -4 54 -9z m-4403 -281 l0
-225 -80 3 c-67 4 -81 1 -86 -12 -3 -9 -1 -23 6 -31 15 -18 18 -16 -47 -48
-46 -23 -109 -41 -129 -38 -7 1 -6 173 1 180 4 4 44 -10 103 -36 40 -18 71
-11 109 21 l28 24 2 172 c2 152 4 174 20 187 17 13 16 14 -6 7 -21 -5 -22 -4
-10 9 8 8 30 14 51 13 l38 -1 0 -225z m4654 64 c41 -80 78 -116 216 -208 140
-94 173 -157 106 -201 -21 -14 -31 -15 -61 -5 -28 9 -46 27 -81 81 -52 79 -65
88 -134 96 -39 4 -58 1 -91 -16 -37 -20 -41 -20 -33 -4 5 10 10 90 11 178 2
88 3 161 3 162 0 1 6 0 13 -2 6 -3 30 -39 51 -81z m-7841 -36 c41 -64 86 -104
194 -175 45 -29 93 -67 107 -84 46 -54 28 -111 -40 -125 -35 -7 -56 10 -98 76
-61 97 -115 136 -172 125 l-34 -6 0 121 c0 66 2 120 5 120 2 0 20 -24 38 -52z
m4149 -81 c-1 -38 -4 -72 -7 -77 -4 -7 -306 -1 -314 6 -8 7 -14 113 -7 129 5
13 28 15 168 13 l163 -3 -3 -68z m3458 -147 c72 -24 85 -32 84 -50 -1 -14 3
-19 12 -16 11 4 12 1 5 -12 -10 -20 -138 -72 -176 -72 -25 0 -25 0 -25 90 0
50 3 90 8 90 4 0 45 -14 92 -30z"/>
<path d="M2972 2189 c-29 -118 -52 -220 -52 -226 0 -10 27 -13 101 -13 l101 0
-4 28 c-7 40 -77 362 -86 396 -6 23 -17 -10 -60 -185z"/>
<path d="M6510 2365 c0 -11 -20 -103 -45 -204 -25 -100 -45 -189 -45 -196 0
-11 23 -13 101 -12 96 1 100 2 95 22 -3 11 -24 103 -47 205 -39 171 -59 233
-59 185z"/>
<path d="M2060 2291 l0 -201 38 0 c79 1 157 59 182 136 16 47 7 143 -16 182
-24 41 -83 72 -149 79 l-55 6 0 -202z m115 79 c10 -11 20 -41 22 -67 4 -39 1
-53 -17 -75 -12 -16 -26 -28 -31 -28 -5 0 -9 43 -9 95 0 52 4 95 8 95 5 0 17
-9 27 -20z"/>
<path d="M6300 2776 c0 -2 7 -7 16 -10 8 -3 12 -2 9 4 -6 10 -25 14 -25 6z"/>
</g>
</svg>
